<?xml version="1.0" encoding="UTF-8" ?>
<!DOCTYPE svg PUBLIC "-//W3C//DTD SVG 1.1//EN" "http://www.w3.org/Graphics/SVG/1.1/DTD/svg11.dtd">
<svg width="1000pt" height="667pt" viewBox="0 0 1000 667" version="1.1" xmlns="http://www.w3.org/2000/svg">
<path fill="#c2c7c5" d=" M 0.00 0.00 L 131.26 0.00 C 128.81 3.55 128.61 7.31 132.14 10.16 C 128.79 16.05 127.33 4.33 122.57 7.35 C 122.87 11.58 122.43 15.63 120.40 19.40 C 118.17 24.39 127.16 19.35 129.07 23.49 C 116.44 24.97 123.51 38.01 115.31 44.20 C 118.48 47.09 134.33 44.77 131.15 54.68 C 138.91 57.50 132.23 61.45 126.44 60.49 C 129.77 69.37 145.59 63.92 148.85 73.62 C 144.73 73.08 138.72 82.02 145.37 79.55 C 147.03 72.73 152.91 78.37 156.23 80.71 C 166.51 80.85 177.08 78.22 185.97 72.97 C 193.87 63.48 206.05 66.11 215.98 61.16 C 231.70 64.90 249.84 56.33 263.91 67.19 C 247.41 63.77 230.96 64.56 214.35 65.19 C 197.77 64.56 187.68 79.94 172.08 82.23 C 156.49 85.95 145.52 98.71 135.23 110.18 C 128.97 107.59 127.89 113.59 125.29 117.25 C 114.00 124.98 102.15 134.44 87.34 129.68 C 82.17 129.71 83.10 118.32 78.27 122.27 C 75.61 125.30 72.18 120.65 69.12 124.05 C 66.19 114.48 55.35 120.70 48.42 117.66 C 42.51 109.87 29.68 107.98 27.22 97.76 C 12.97 97.12 13.53 78.73 0.00 76.51 L 0.00 0.00 Z" />
<path fill="#cfd2d1" d=" M 131.26 0.00 L 697.70 0.00 C 695.71 3.29 688.13 7.16 692.82 11.16 C 696.78 14.63 695.00 21.31 693.79 25.93 C 688.38 25.00 683.19 21.50 677.49 23.39 C 680.58 32.06 671.90 39.58 676.51 48.08 C 679.52 54.31 664.18 56.31 671.59 51.54 C 676.43 48.24 666.02 45.70 667.62 51.56 C 655.06 48.39 655.85 63.31 647.06 68.04 C 639.08 77.02 628.99 61.94 622.11 69.10 C 626.30 78.77 614.89 72.30 612.09 79.04 C 604.29 84.20 594.11 84.30 587.00 91.07 C 584.01 90.00 580.87 86.45 578.87 90.96 C 576.57 93.99 573.03 86.04 570.16 90.12 C 566.79 95.06 560.73 93.77 555.56 93.72 C 549.15 93.50 545.66 101.43 538.98 99.82 C 534.04 99.09 529.43 100.14 525.85 103.52 C 517.36 99.67 509.55 108.37 500.96 107.80 C 493.87 106.94 487.02 108.29 481.32 112.50 C 477.36 108.06 471.99 111.41 468.03 113.96 C 465.48 112.67 463.12 108.78 459.99 110.93 C 452.50 115.12 443.54 113.45 435.37 113.76 C 433.81 111.68 432.24 109.61 429.57 111.49 C 426.75 113.01 416.02 106.61 420.83 112.07 C 415.72 115.07 416.84 106.54 413.27 112.37 C 409.70 117.33 407.06 105.26 402.17 110.11 C 396.27 115.70 386.82 108.77 379.35 111.71 C 367.83 102.21 351.79 99.00 341.49 88.56 C 322.87 82.55 302.22 78.18 285.19 69.36 C 279.91 71.70 274.13 64.48 269.74 68.72 C 267.61 69.14 265.63 68.39 263.91 67.19 C 249.84 56.33 231.70 64.90 215.98 61.16 C 206.05 66.11 193.87 63.48 185.97 72.97 C 177.08 78.22 166.51 80.85 156.23 80.71 C 152.91 78.37 147.03 72.73 145.37 79.55 C 138.72 82.02 144.73 73.08 148.85 73.62 C 145.59 63.92 129.77 69.37 126.44 60.49 C 132.23 61.45 138.91 57.50 131.15 54.68 C 134.33 44.77 118.48 47.09 115.31 44.20 C 123.51 38.01 116.44 24.97 129.07 23.49 C 127.16 19.35 118.17 24.39 120.40 19.40 C 122.43 15.63 122.87 11.58 122.57 7.35 C 127.33 4.33 128.79 16.05 132.14 10.16 C 128.61 7.31 128.81 3.55 131.26 0.00 Z" />
<path fill="#cdcac7" d=" M 697.70 0.00 L 786.15 0.00 C 783.64 5.16 788.24 20.40 790.92 8.50 C 797.68 15.17 789.26 23.69 785.83 28.71 C 779.68 27.17 785.63 32.87 788.13 34.02 C 785.15 36.37 784.27 39.46 784.06 42.96 C 768.75 43.44 764.29 61.94 757.54 70.07 C 752.90 74.85 743.32 75.45 741.65 83.63 C 731.39 84.05 727.73 94.76 716.96 94.97 C 711.96 93.63 712.80 101.11 708.16 100.08 C 703.91 93.32 699.62 104.34 693.81 104.78 C 685.33 111.70 673.66 108.48 665.28 114.27 C 660.03 120.82 649.03 115.16 644.18 121.84 C 645.71 113.78 634.03 118.45 640.85 122.86 C 631.79 125.16 622.94 129.77 613.48 129.33 C 603.03 126.70 593.16 131.75 583.32 135.20 C 572.44 133.52 561.55 140.63 550.28 138.47 C 545.12 137.41 544.64 145.90 540.08 143.02 C 533.85 140.38 527.73 144.03 521.89 145.91 C 499.36 146.58 476.57 149.92 453.77 150.28 C 437.47 156.77 418.08 151.32 400.43 152.55 C 393.85 150.39 380.15 154.86 381.47 143.41 C 383.13 135.88 382.79 126.78 376.90 120.96 C 374.98 118.57 372.69 116.52 370.24 114.71 C 358.97 103.54 343.47 98.24 331.03 88.03 C 309.05 85.74 290.32 74.82 269.74 68.72 C 274.13 64.48 279.91 71.70 285.19 69.36 C 302.22 78.18 322.87 82.55 341.49 88.56 C 351.79 99.00 367.83 102.21 379.35 111.71 C 386.82 108.77 396.27 115.70 402.17 110.11 C 407.06 105.26 409.70 117.33 413.27 112.37 C 416.84 106.54 415.72 115.07 420.83 112.07 C 416.02 106.61 426.75 113.01 429.57 111.49 C 432.24 109.61 433.81 111.68 435.37 113.76 C 443.54 113.45 452.50 115.12 459.99 110.93 C 463.12 108.78 465.48 112.67 468.03 113.96 C 471.99 111.41 477.36 108.06 481.32 112.50 C 487.02 108.29 493.87 106.94 500.96 107.80 C 509.55 108.37 517.36 99.67 525.85 103.52 C 529.43 100.14 534.04 99.09 538.98 99.82 C 545.66 101.43 549.15 93.50 555.56 93.72 C 560.73 93.77 566.79 95.06 570.16 90.12 C 573.03 86.04 576.57 93.99 578.87 90.96 C 580.87 86.45 584.01 90.00 587.00 91.07 C 594.11 84.30 604.29 84.20 612.09 79.04 C 614.89 72.30 626.30 78.77 622.11 69.10 C 628.99 61.94 639.08 77.02 647.06 68.04 C 655.85 63.31 655.06 48.39 667.62 51.56 C 666.02 45.70 676.43 48.24 671.59 51.54 C 664.18 56.31 679.52 54.31 676.51 48.08 C 671.90 39.58 680.58 32.06 677.49 23.39 C 683.19 21.50 688.38 25.00 693.79 25.93 C 695.00 21.31 696.78 14.63 692.82 11.16 C 688.13 7.16 695.71 3.29 697.70 0.00 Z" />
<path fill="#c7c2bf" d=" M 786.15 0.00 L 866.10 0.00 C 867.70 5.62 863.57 10.99 865.44 16.43 C 856.48 14.15 856.32 22.71 863.44 23.47 C 863.60 32.13 867.58 44.44 856.73 45.85 C 846.89 52.59 852.65 67.65 840.23 70.28 C 833.76 77.64 823.34 79.89 819.24 89.29 C 795.48 97.45 774.70 117.43 748.83 117.75 C 740.13 127.30 724.50 122.01 716.14 132.19 C 703.73 130.37 693.39 142.12 680.23 139.51 C 675.30 138.43 671.70 141.55 668.53 144.46 C 585.46 162.09 501.05 183.34 415.18 176.21 C 404.81 177.30 389.37 184.74 385.92 169.93 C 384.45 162.09 377.55 155.59 376.70 148.13 L 376.91 147.43 C 381.07 138.84 379.98 129.57 376.90 120.96 C 382.79 126.78 383.13 135.88 381.47 143.41 C 380.15 154.86 393.85 150.39 400.43 152.55 C 418.08 151.32 437.47 156.77 453.77 150.28 C 476.57 149.92 499.36 146.58 521.89 145.91 C 527.73 144.03 533.85 140.38 540.08 143.02 C 544.64 145.90 545.12 137.41 550.28 138.47 C 561.55 140.63 572.44 133.52 583.32 135.20 C 593.16 131.75 603.03 126.70 613.48 129.33 C 622.94 129.77 631.79 125.16 640.85 122.86 C 634.03 118.45 645.71 113.78 644.18 121.84 C 649.03 115.16 660.03 120.82 665.28 114.27 C 673.66 108.48 685.33 111.70 693.81 104.78 C 699.62 104.34 703.91 93.32 708.16 100.08 C 712.80 101.11 711.96 93.63 716.96 94.97 C 727.73 94.76 731.39 84.05 741.65 83.63 C 743.32 75.45 752.90 74.85 757.54 70.07 C 764.29 61.94 768.75 43.44 784.06 42.96 C 784.27 39.46 785.15 36.37 788.13 34.02 C 785.63 32.87 779.68 27.17 785.83 28.71 C 789.26 23.69 797.68 15.17 790.92 8.50 C 788.24 20.40 783.64 5.16 786.15 0.00 Z" />
<path fill="#bfb9b8" d=" M 866.10 0.00 L 932.18 0.00 C 932.16 3.80 924.41 8.41 929.42 10.50 C 939.15 11.83 937.14 24.94 939.16 31.99 C 942.20 40.04 933.74 41.42 928.46 43.61 C 929.27 50.72 924.05 55.99 921.16 61.80 C 927.13 67.75 910.99 67.04 913.44 74.53 C 912.22 82.70 906.19 88.03 898.16 89.12 C 892.86 89.98 892.29 98.24 885.82 95.67 C 884.25 105.98 871.34 99.37 866.05 106.01 C 860.12 112.84 850.25 112.07 844.14 119.05 C 829.40 119.90 817.37 129.32 803.51 133.47 C 783.74 137.68 764.48 143.27 745.51 150.27 C 722.78 150.34 702.49 163.61 680.40 164.43 C 637.73 181.34 590.70 180.82 545.95 188.79 C 512.08 193.39 477.93 193.22 444.08 189.02 C 428.02 185.84 411.72 190.94 395.57 189.50 C 392.59 188.79 390.74 186.16 388.77 184.03 C 387.23 179.47 386.16 174.75 385.92 169.93 C 389.37 184.74 404.81 177.30 415.18 176.21 C 501.05 183.34 585.46 162.09 668.53 144.46 C 671.70 141.55 675.30 138.43 680.23 139.51 C 693.39 142.12 703.73 130.37 716.14 132.19 C 724.50 122.01 740.13 127.30 748.83 117.75 C 774.70 117.43 795.48 97.45 819.24 89.29 C 823.34 79.89 833.76 77.64 840.23 70.28 C 852.65 67.65 846.89 52.59 856.73 45.85 C 867.58 44.44 863.60 32.13 863.44 23.47 C 856.32 22.71 856.48 14.15 865.44 16.43 C 863.57 10.99 867.70 5.62 866.10 0.00 Z" />
<path fill="#b5b1b0" d=" M 932.18 0.00 L 1000.00 0.00 L 1000.00 49.68 C 994.76 48.85 995.24 54.35 995.83 57.87 C 991.97 64.39 985.31 69.83 982.61 76.59 C 972.95 76.34 974.70 90.95 964.40 89.50 C 954.16 95.34 946.11 106.08 933.70 107.74 C 873.37 139.22 806.39 158.94 739.34 169.36 C 714.04 171.63 689.66 178.85 665.16 185.18 C 634.34 190.61 603.47 195.10 572.17 196.27 C 564.22 199.72 553.52 195.73 547.72 203.47 C 529.12 202.26 510.57 205.35 491.99 204.99 C 460.87 202.23 429.57 197.72 398.33 201.34 C 395.70 201.53 395.97 204.19 395.74 206.16 C 395.12 198.27 390.38 191.66 388.77 184.03 C 390.74 186.16 392.59 188.79 395.57 189.50 C 411.72 190.94 428.02 185.84 444.08 189.02 C 477.93 193.22 512.08 193.39 545.95 188.79 C 590.70 180.82 637.73 181.34 680.40 164.43 C 702.49 163.61 722.78 150.34 745.51 150.27 C 764.48 143.27 783.74 137.68 803.51 133.47 C 817.37 129.32 829.40 119.90 844.14 119.05 C 850.25 112.07 860.12 112.84 866.05 106.01 C 871.34 99.37 884.25 105.98 885.82 95.67 C 892.29 98.24 892.86 89.98 898.16 89.12 C 906.19 88.03 912.22 82.70 913.44 74.53 C 910.99 67.04 927.13 67.75 921.16 61.80 C 924.05 55.99 929.27 50.72 928.46 43.61 C 933.74 41.42 942.20 40.04 939.16 31.99 C 937.14 24.94 939.15 11.83 929.42 10.50 C 924.41 8.41 932.16 3.80 932.18 0.00 Z" />
<path fill="#afa7a7" d=" M 995.83 57.87 C 995.24 54.35 994.76 48.85 1000.00 49.68 L 1000.00 113.52 C 983.27 123.13 966.55 133.71 947.88 138.87 C 912.45 157.83 871.72 164.50 833.08 175.06 C 806.58 179.94 779.53 179.89 752.71 180.52 C 725.27 180.01 698.14 185.69 671.54 191.66 C 643.04 194.40 615.02 200.75 586.35 200.40 C 573.43 200.03 560.64 202.58 547.72 203.47 C 553.52 195.73 564.22 199.72 572.17 196.27 C 603.47 195.10 634.34 190.61 665.16 185.18 C 689.66 178.85 714.04 171.63 739.34 169.36 C 806.39 158.94 873.37 139.22 933.70 107.74 C 946.11 106.08 954.16 95.34 964.40 89.50 C 974.70 90.95 972.95 76.34 982.61 76.59 C 985.31 69.83 991.97 64.39 995.83 57.87 Z" />
<path fill="#241514" d=" M 214.35 65.19 C 230.96 64.56 247.41 63.77 263.91 67.19 C 265.63 68.39 267.61 69.14 269.74 68.72 C 290.32 74.82 309.05 85.74 331.03 88.03 C 343.47 98.24 358.97 103.54 370.24 114.71 C 375.65 120.35 369.42 129.06 374.49 134.66 C 378.44 143.90 369.06 138.38 365.67 136.33 C 357.08 133.14 347.53 125.15 338.18 128.14 C 333.55 135.10 326.09 124.20 320.03 128.03 C 315.60 130.85 310.07 127.83 305.53 130.51 C 299.13 137.10 283.92 126.45 284.46 140.59 C 286.70 148.55 283.49 155.56 281.25 163.28 C 272.79 162.91 274.18 164.76 276.42 169.31 C 268.27 170.70 259.47 176.77 264.82 185.81 C 257.31 189.90 248.52 192.47 240.80 196.54 C 234.78 196.40 246.11 186.32 239.02 183.81 C 234.51 186.54 226.91 191.30 231.74 197.08 C 228.39 204.11 223.59 209.92 217.14 214.33 C 217.27 221.28 227.87 218.84 232.42 221.96 C 230.26 225.22 226.90 227.48 222.91 227.28 C 221.94 226.85 220.98 226.38 220.04 225.88 C 219.41 225.23 218.75 224.60 218.07 224.00 C 209.36 217.29 196.77 221.69 190.67 229.93 C 192.95 225.21 196.46 220.91 201.03 218.29 C 204.33 217.57 209.99 221.69 210.42 216.17 C 207.74 208.67 218.07 205.79 216.98 199.01 C 211.28 194.97 211.01 204.07 206.49 202.79 C 202.02 196.51 206.37 189.51 210.17 184.16 C 215.38 179.79 227.07 182.77 229.69 175.18 C 226.05 172.18 219.02 168.86 227.75 165.16 C 234.18 176.07 242.95 165.88 250.15 161.98 C 253.24 163.25 253.86 168.70 257.69 167.87 C 262.07 163.74 264.07 154.40 257.29 151.59 C 258.49 147.33 255.94 144.08 255.05 140.24 C 261.76 136.24 268.82 142.74 275.38 141.44 C 283.23 139.41 271.43 132.36 279.12 130.08 C 285.14 124.03 297.72 134.85 298.78 124.73 C 310.12 124.06 311.61 109.55 322.34 107.36 C 313.01 102.59 308.60 111.88 299.43 110.49 C 292.36 111.88 306.89 122.45 298.69 122.28 C 293.42 116.16 288.68 126.73 282.94 123.14 C 278.56 121.43 274.16 116.23 271.98 123.18 C 268.77 118.88 265.15 114.82 258.96 117.89 C 257.91 111.74 265.67 115.28 268.22 112.26 C 271.56 107.27 276.17 109.67 277.35 114.80 C 282.63 110.42 287.70 105.15 276.12 106.83 C 280.11 97.27 265.37 104.14 263.40 98.12 C 266.91 92.70 274.30 97.54 278.42 95.03 C 273.71 86.93 265.26 94.92 259.88 88.10 C 248.59 78.84 238.96 92.53 239.17 102.77 C 240.89 106.49 244.58 115.53 236.04 113.06 C 230.80 111.95 220.33 105.64 225.66 99.65 C 233.51 98.41 239.72 89.07 238.36 81.71 C 228.54 72.45 219.83 86.53 209.97 87.00 C 205.71 84.82 215.97 80.91 211.84 78.09 C 203.28 78.06 197.27 85.32 189.23 86.84 C 182.81 77.45 171.06 92.25 161.33 89.38 C 150.50 99.95 139.84 112.06 130.11 124.07 C 128.73 133.41 113.06 129.16 118.76 140.88 C 113.10 151.29 100.64 162.07 105.58 175.42 C 100.72 186.47 109.01 199.83 104.93 211.84 C 111.67 216.46 102.60 222.65 104.85 229.14 C 103.73 223.75 104.02 218.23 103.88 212.77 C 103.86 211.09 103.67 209.41 103.49 207.74 C 105.13 194.38 100.37 181.16 103.12 167.95 C 103.42 153.22 117.90 144.20 117.23 129.27 C 125.10 125.90 128.07 115.52 135.23 110.18 C 145.52 98.71 156.49 85.95 172.08 82.23 C 187.68 79.94 197.77 64.56 214.35 65.19 Z" />
<path fill="#c0bab4" d=" M 0.00 76.51 C 13.53 78.73 12.97 97.12 27.22 97.76 C 29.68 107.98 42.51 109.87 48.42 117.66 C 55.35 120.70 66.19 114.48 69.12 124.05 C 72.18 120.65 75.61 125.30 78.27 122.27 C 83.10 118.32 82.17 129.71 87.34 129.68 C 102.15 134.44 114.00 124.98 125.29 117.25 C 127.89 113.59 128.97 107.59 135.23 110.18 C 128.07 115.52 125.10 125.90 117.23 129.27 C 117.90 144.20 103.42 153.22 103.12 167.95 C 95.75 172.79 98.35 189.55 86.68 184.36 C 69.01 177.38 48.64 180.09 31.81 170.28 C 20.17 173.24 10.94 164.56 0.00 163.14 L 0.00 76.51 Z" />
<path fill="#110b0b" d=" M 189.23 86.84 C 197.27 85.32 203.28 78.06 211.84 78.09 C 215.97 80.91 205.71 84.82 209.97 87.00 C 219.83 86.53 228.54 72.45 238.36 81.71 C 239.72 89.07 233.51 98.41 225.66 99.65 C 220.33 105.64 230.80 111.95 236.04 113.06 C 244.58 115.53 240.89 106.49 239.17 102.77 C 238.96 92.53 248.59 78.84 259.88 88.10 C 265.26 94.92 273.71 86.93 278.42 95.03 C 274.30 97.54 266.91 92.70 263.40 98.12 C 265.37 104.14 280.11 97.27 276.12 106.83 C 287.70 105.15 282.63 110.42 277.35 114.80 C 276.17 109.67 271.56 107.27 268.22 112.26 C 265.67 115.28 257.91 111.74 258.96 117.89 C 265.15 114.82 268.77 118.88 271.98 123.18 C 274.16 116.23 278.56 121.43 282.94 123.14 C 288.68 126.73 293.42 116.16 298.69 122.28 C 306.89 122.45 292.36 111.88 299.43 110.49 C 308.60 111.88 313.01 102.59 322.34 107.36 C 311.61 109.55 310.12 124.06 298.78 124.73 C 297.72 134.85 285.14 124.03 279.12 130.08 C 271.43 132.36 283.23 139.41 275.38 141.44 C 268.82 142.74 261.76 136.24 255.05 140.24 C 255.94 144.08 258.49 147.33 257.29 151.59 C 264.07 154.40 262.07 163.74 257.69 167.87 C 253.86 168.70 253.24 163.25 250.15 161.98 C 242.95 165.88 234.18 176.07 227.75 165.16 C 219.02 168.86 226.05 172.18 229.69 175.18 C 227.07 182.77 215.38 179.79 210.17 184.16 C 206.37 189.51 202.02 196.51 206.49 202.79 C 211.01 204.07 211.28 194.97 216.98 199.01 C 218.07 205.79 207.74 208.67 210.42 216.17 C 209.99 221.69 204.33 217.57 201.03 218.29 C 196.46 220.91 192.95 225.21 190.67 229.93 C 187.99 234.50 185.91 239.45 185.56 244.81 C 181.31 257.94 182.80 272.06 178.08 285.10 C 177.00 295.55 169.06 303.30 167.72 313.56 C 165.42 322.03 164.18 335.37 152.83 335.92 C 142.52 341.70 135.92 321.70 127.21 335.21 C 125.38 330.56 124.25 325.67 123.40 320.76 C 122.78 303.73 120.58 287.03 115.19 270.75 C 112.50 258.32 108.01 246.36 106.23 233.73 C 105.82 232.18 105.25 230.69 104.85 229.14 C 102.60 222.65 111.67 216.46 104.93 211.84 C 109.01 199.83 100.72 186.47 105.58 175.42 C 100.64 162.07 113.10 151.29 118.76 140.88 C 113.06 129.16 128.73 133.41 130.11 124.07 C 139.84 112.06 150.50 99.95 161.33 89.38 C 171.06 92.25 182.81 77.45 189.23 86.84 Z" />
<path fill="#a39c9d" d=" M 947.88 138.87 C 966.55 133.71 983.27 123.13 1000.00 113.52 L 1000.00 154.62 C 961.96 168.53 923.01 180.31 882.37 183.28 C 852.77 190.66 822.78 194.13 792.19 192.07 C 786.10 192.02 780.05 191.45 773.98 191.11 C 776.45 185.71 765.01 192.50 761.92 188.58 C 770.97 185.19 753.16 187.25 752.43 186.34 C 756.48 183.41 748.26 184.17 752.54 182.50 C 762.59 182.12 755.12 180.89 752.71 180.52 C 779.53 179.89 806.58 179.94 833.08 175.06 C 871.72 164.50 912.45 157.83 947.88 138.87 Z" />
<path fill="#431b14" d=" M 370.24 114.71 C 372.69 116.52 374.98 118.57 376.90 120.96 C 379.98 129.57 381.07 138.84 376.91 147.43 C 369.35 140.74 359.70 138.06 350.99 133.08 C 346.50 131.43 340.29 128.92 336.96 133.68 C 330.43 130.72 323.29 133.99 318.40 138.55 C 311.86 142.98 310.22 128.74 304.22 134.21 C 295.97 137.23 294.38 146.98 295.66 154.67 C 283.42 168.49 284.84 189.46 270.29 202.44 C 271.02 216.13 268.30 229.21 270.40 242.73 C 263.52 248.28 268.38 257.53 265.69 264.79 C 262.14 272.02 270.20 283.79 258.81 286.05 C 256.11 278.32 261.18 268.25 253.07 260.95 C 244.13 251.44 245.50 232.22 229.84 229.22 C 227.50 228.70 225.11 228.27 222.91 227.28 C 226.90 227.48 230.26 225.22 232.42 221.96 C 227.87 218.84 217.27 221.28 217.14 214.33 C 223.59 209.92 228.39 204.11 231.74 197.08 C 226.91 191.30 234.51 186.54 239.02 183.81 C 246.11 186.32 234.78 196.40 240.80 196.54 C 248.52 192.47 257.31 189.90 264.82 185.81 C 259.47 176.77 268.27 170.70 276.42 169.31 C 274.18 164.76 272.79 162.91 281.25 163.28 C 283.49 155.56 286.70 148.55 284.46 140.59 C 283.92 126.45 299.13 137.10 305.53 130.51 C 310.07 127.83 315.60 130.85 320.03 128.03 C 326.09 124.20 333.55 135.10 338.18 128.14 C 347.53 125.15 357.08 133.14 365.67 136.33 C 369.06 138.38 378.44 143.90 374.49 134.66 C 369.42 129.06 375.65 120.35 370.24 114.71 Z" />
<path fill="#6d281a" d=" M 336.96 133.68 C 340.29 128.92 346.50 131.43 350.99 133.08 C 359.70 138.06 369.35 140.74 376.91 147.43 L 376.70 148.13 C 375.21 148.48 373.71 148.91 372.18 148.90 C 370.78 147.96 369.44 146.96 368.12 145.94 C 363.11 140.14 355.78 137.05 348.99 133.87 C 343.69 134.94 343.11 141.99 339.17 145.10 C 334.45 140.98 328.53 137.95 324.11 143.90 C 319.73 139.16 316.89 143.27 312.29 143.92 C 308.49 140.05 301.77 140.24 299.80 145.83 C 295.90 153.34 301.21 161.96 297.62 169.53 C 292.81 176.26 301.02 180.64 301.96 186.90 C 297.19 200.98 276.40 202.62 276.66 219.69 C 278.36 232.35 268.41 244.24 272.53 256.82 C 271.93 265.40 277.79 272.27 279.93 279.90 C 277.30 288.64 280.69 298.37 275.30 306.19 C 271.73 313.82 279.29 320.82 276.27 328.67 C 282.26 335.85 286.61 346.67 297.31 344.56 C 294.55 355.75 309.31 349.61 314.32 352.09 C 313.72 360.84 321.62 349.83 324.87 355.04 C 326.74 360.77 334.41 368.12 338.64 360.63 C 342.33 355.96 345.51 359.86 341.96 363.93 C 349.66 371.40 351.98 350.95 355.10 357.96 C 351.41 362.54 351.48 370.81 359.00 369.87 C 357.52 379.41 365.90 371.28 368.12 375.79 C 368.89 380.25 372.07 383.23 376.70 383.24 C 372.64 387.17 379.04 391.09 382.97 390.21 C 381.79 392.27 380.35 394.32 378.25 395.54 C 367.06 392.11 360.58 379.40 346.92 383.85 C 354.66 375.49 340.25 372.45 333.25 371.54 C 327.04 374.03 324.66 364.98 318.55 369.67 C 321.48 359.39 305.33 365.70 302.15 356.79 C 292.45 354.91 283.42 352.36 273.86 347.13 C 270.20 340.90 258.48 331.49 266.09 323.85 C 257.32 323.01 259.30 304.51 248.16 311.14 C 236.07 331.44 253.94 353.80 269.09 366.97 C 271.40 369.50 268.75 371.75 266.76 373.26 C 278.01 377.54 284.92 388.65 296.57 392.35 C 300.31 394.39 301.93 398.57 304.31 401.87 C 304.05 402.39 303.54 403.42 303.28 403.93 C 298.10 393.45 283.41 394.86 276.74 386.19 C 268.73 384.35 260.14 376.32 260.42 367.59 C 259.65 363.98 254.58 368.89 253.32 365.66 C 249.28 362.09 260.66 362.09 255.76 358.29 C 240.43 343.97 241.23 322.22 233.73 304.20 C 235.77 304.14 237.82 304.14 239.85 303.95 C 259.38 296.59 254.83 268.44 243.62 255.31 C 237.06 247.70 237.87 236.02 229.84 229.22 C 245.50 232.22 244.13 251.44 253.07 260.95 C 261.18 268.25 256.11 278.32 258.81 286.05 C 270.20 283.79 262.14 272.02 265.69 264.79 C 268.38 257.53 263.52 248.28 270.40 242.73 C 268.30 229.21 271.02 216.13 270.29 202.44 C 284.84 189.46 283.42 168.49 295.66 154.67 C 294.38 146.98 295.97 137.23 304.22 134.21 C 310.22 128.74 311.86 142.98 318.40 138.55 C 323.29 133.99 330.43 130.72 336.96 133.68 Z" />
<path fill="#c65132" d=" M 339.17 145.10 C 343.11 141.99 343.69 134.94 348.99 133.87 C 355.78 137.05 363.11 140.14 368.12 145.94 C 361.64 143.34 355.13 140.48 348.11 139.80 C 344.72 147.61 333.80 146.63 330.46 154.43 C 322.18 158.49 310.66 171.82 319.98 180.03 C 321.40 186.31 319.98 193.29 324.21 198.66 C 322.42 206.67 335.48 205.68 331.38 214.03 C 344.99 217.80 352.86 198.90 366.52 204.35 C 370.85 204.48 374.45 206.84 378.06 208.87 C 366.73 206.68 353.40 205.44 345.95 216.06 C 346.03 220.91 351.95 219.54 354.70 217.71 C 364.29 212.25 377.67 226.31 385.30 217.01 C 382.58 214.57 379.22 212.57 378.06 208.87 C 387.40 208.51 390.39 221.20 382.80 224.71 C 373.45 225.55 375.50 238.04 366.18 239.18 C 366.18 247.03 358.72 243.77 354.76 240.41 C 359.78 240.45 361.39 234.68 366.33 234.38 C 373.99 225.90 351.14 226.79 354.30 233.46 C 352.95 235.65 354.32 238.15 354.76 240.41 C 348.96 235.58 341.21 238.31 334.71 236.35 C 335.44 230.23 328.10 228.23 323.87 227.89 C 320.20 232.06 314.07 233.61 310.56 228.41 C 306.33 224.33 304.21 231.05 303.26 234.28 C 294.24 232.85 294.15 244.78 293.33 250.52 C 309.34 261.61 312.58 281.50 313.66 299.49 C 313.19 307.09 320.74 313.93 315.14 320.83 C 323.14 327.00 332.96 321.49 341.76 324.19 C 345.83 328.78 350.24 333.76 352.00 338.01 C 353.21 330.96 357.59 320.77 363.29 314.16 C 371.95 315.72 382.99 312.25 386.69 304.18 C 381.78 298.56 370.22 297.38 375.17 286.37 C 382.69 280.08 391.89 267.75 402.67 271.32 C 407.84 280.69 389.94 281.51 386.56 286.64 C 382.41 297.43 396.25 291.80 400.88 289.87 C 397.46 294.09 406.91 295.11 404.25 299.22 C 402.86 299.49 401.48 299.72 400.12 300.07 C 391.45 302.56 377.68 318.90 394.99 319.11 C 395.49 325.03 388.73 326.72 384.79 329.61 C 376.76 330.05 370.57 333.89 362.28 332.21 C 355.77 338.96 351.07 350.14 359.99 357.04 C 363.10 358.04 366.14 359.30 364.84 363.25 C 355.70 361.31 353.02 344.51 343.12 351.58 C 339.55 345.38 347.69 336.91 343.32 329.95 C 337.51 333.13 326.10 328.79 327.60 339.81 C 328.19 349.63 314.14 350.09 315.24 340.17 C 311.86 333.87 312.90 343.74 309.92 345.95 C 304.89 342.98 302.12 337.12 296.20 335.58 C 296.25 328.06 305.19 321.24 297.69 314.33 C 292.79 313.90 283.69 305.41 288.75 303.08 C 298.70 312.66 302.50 294.11 295.13 287.92 C 295.50 274.84 280.81 270.68 278.11 258.89 C 268.79 249.82 279.71 239.98 280.21 230.17 C 282.62 223.53 279.32 213.68 286.41 209.42 C 298.05 207.27 310.94 197.03 309.96 184.05 C 307.90 174.13 300.95 164.62 306.47 154.39 C 303.67 147.96 303.09 141.69 312.29 143.92 C 316.89 143.27 319.73 139.16 324.11 143.90 C 328.53 137.95 334.45 140.98 339.17 145.10 Z" />
<path fill="#e46845" d=" M 330.46 154.43 C 333.80 146.63 344.72 147.61 348.11 139.80 C 355.13 140.48 361.64 143.34 368.12 145.94 C 369.44 146.96 370.78 147.96 372.18 148.90 C 366.80 148.24 358.57 145.82 361.09 154.93 C 364.23 162.91 363.95 173.25 372.05 177.96 C 373.56 183.72 367.86 190.21 371.30 195.73 C 378.35 202.43 393.51 204.90 394.42 216.27 C 396.54 222.25 390.00 225.51 390.88 231.06 C 392.73 215.24 374.75 231.01 379.27 238.65 C 378.14 243.97 387.27 243.47 385.26 247.14 C 377.15 263.87 352.78 259.35 346.50 243.44 C 336.38 245.84 325.33 231.52 318.45 243.37 C 319.40 250.59 330.73 252.12 326.44 260.92 C 330.52 276.30 334.53 291.53 336.71 307.42 C 336.82 313.40 341.40 307.95 344.35 309.57 C 343.61 316.32 347.36 321.29 352.26 325.17 C 358.01 319.67 360.92 311.08 366.88 306.18 C 370.61 309.45 380.45 310.66 378.85 303.29 C 370.52 301.35 364.03 290.26 371.60 283.61 C 375.24 274.39 389.21 277.24 391.04 266.91 C 392.45 258.23 402.69 264.02 406.38 258.00 C 406.70 258.01 407.33 258.04 407.65 258.06 C 412.87 265.68 418.53 272.99 423.94 280.47 C 425.49 285.15 424.64 290.01 420.71 293.03 C 419.86 293.41 419.02 293.80 418.18 294.21 C 413.80 289.73 406.83 288.23 400.88 289.87 C 396.25 291.80 382.41 297.43 386.56 286.64 C 389.94 281.51 407.84 280.69 402.67 271.32 C 391.89 267.75 382.69 280.08 375.17 286.37 C 370.22 297.38 381.78 298.56 386.69 304.18 C 382.99 312.25 371.95 315.72 363.29 314.16 C 357.59 320.77 353.21 330.96 352.00 338.01 C 350.24 333.76 345.83 328.78 341.76 324.19 C 332.96 321.49 323.14 327.00 315.14 320.83 C 320.74 313.93 313.19 307.09 313.66 299.49 C 312.58 281.50 309.34 261.61 293.33 250.52 C 294.15 244.78 294.24 232.85 303.26 234.28 C 304.21 231.05 306.33 224.33 310.56 228.41 C 314.07 233.61 320.20 232.06 323.87 227.89 C 328.10 228.23 335.44 230.23 334.71 236.35 C 341.21 238.31 348.96 235.58 354.76 240.41 C 358.72 243.77 366.18 247.03 366.18 239.18 C 375.50 238.04 373.45 225.55 382.80 224.71 C 390.39 221.20 387.40 208.51 378.06 208.87 C 374.45 206.84 370.85 204.48 366.52 204.35 C 352.86 198.90 344.99 217.80 331.38 214.03 C 335.48 205.68 322.42 206.67 324.21 198.66 C 319.98 193.29 321.40 186.31 319.98 180.03 C 310.66 171.82 322.18 158.49 330.46 154.43 Z" />
<path fill="#9f3f27" d=" M 299.80 145.83 C 301.77 140.24 308.49 140.05 312.29 143.92 C 303.09 141.69 303.67 147.96 306.47 154.39 C 300.95 164.62 307.90 174.13 309.96 184.05 C 310.94 197.03 298.05 207.27 286.41 209.42 C 279.32 213.68 282.62 223.53 280.21 230.17 C 279.71 239.98 268.79 249.82 278.11 258.89 C 280.81 270.68 295.50 274.84 295.13 287.92 C 302.50 294.11 298.70 312.66 288.75 303.08 C 283.69 305.41 292.79 313.90 297.69 314.33 C 305.19 321.24 296.25 328.06 296.20 335.58 C 302.12 337.12 304.89 342.98 309.92 345.95 C 312.90 343.74 311.86 333.87 315.24 340.17 C 314.14 350.09 328.19 349.63 327.60 339.81 C 326.10 328.79 337.51 333.13 343.32 329.95 C 347.69 336.91 339.55 345.38 343.12 351.58 C 353.02 344.51 355.70 361.31 364.84 363.25 C 367.40 366.10 370.07 368.92 373.58 370.61 C 378.75 372.75 380.35 382.64 387.09 379.05 C 387.11 383.14 384.52 386.58 382.97 390.21 C 379.04 391.09 372.64 387.17 376.70 383.24 C 372.07 383.23 368.89 380.25 368.12 375.79 C 365.90 371.28 357.52 379.41 359.00 369.87 C 351.48 370.81 351.41 362.54 355.10 357.96 C 351.98 350.95 349.66 371.40 341.96 363.93 C 345.51 359.86 342.33 355.96 338.64 360.63 C 334.41 368.12 326.74 360.77 324.87 355.04 C 321.62 349.83 313.72 360.84 314.32 352.09 C 309.31 349.61 294.55 355.75 297.31 344.56 C 286.61 346.67 282.26 335.85 276.27 328.67 C 279.29 320.82 271.73 313.82 275.30 306.19 C 280.69 298.37 277.30 288.64 279.93 279.90 C 277.79 272.27 271.93 265.40 272.53 256.82 C 268.41 244.24 278.36 232.35 276.66 219.69 C 276.40 202.62 297.19 200.98 301.96 186.90 C 301.02 180.64 292.81 176.26 297.62 169.53 C 301.21 161.96 295.90 153.34 299.80 145.83 Z" />
<path fill="#e27e6c" d=" M 361.09 154.93 C 358.57 145.82 366.80 148.24 372.18 148.90 C 373.71 148.91 375.21 148.48 376.70 148.13 C 377.55 155.59 384.45 162.09 385.92 169.93 C 386.16 174.75 387.23 179.47 388.77 184.03 C 390.38 191.66 395.12 198.27 395.74 206.16 C 395.52 208.65 395.24 211.13 395.10 213.62 C 394.93 214.28 394.59 215.61 394.42 216.27 C 393.51 204.90 378.35 202.43 371.30 195.73 C 367.86 190.21 373.56 183.72 372.05 177.96 C 363.95 173.25 364.23 162.91 361.09 154.93 Z" />
<path fill="#908e97" d=" M 882.37 183.28 C 923.01 180.31 961.96 168.53 1000.00 154.62 L 1000.00 184.76 C 991.97 186.33 984.18 188.80 976.31 190.97 C 946.06 194.47 915.66 198.31 885.04 197.52 C 857.74 202.12 830.36 207.78 802.88 200.90 C 810.66 196.19 796.06 195.70 793.31 197.80 C 785.69 200.26 788.02 192.94 792.19 192.07 C 822.78 194.13 852.77 190.66 882.37 183.28 Z" />
<path fill="#b3a8a6" d=" M 0.00 163.14 C 10.94 164.56 20.17 173.24 31.81 170.28 C 48.64 180.09 69.01 177.38 86.68 184.36 C 98.35 189.55 95.75 172.79 103.12 167.95 C 100.37 181.16 105.13 194.38 103.49 207.74 C 102.96 216.30 94.34 221.97 86.02 218.95 C 57.49 215.54 28.46 217.00 0.00 214.87 L 0.00 163.14 Z" />
<path fill="#9ba1ae" d=" M 671.54 191.66 C 698.14 185.69 725.27 180.01 752.71 180.52 C 755.12 180.89 762.59 182.12 752.54 182.50 C 748.26 184.17 756.48 183.41 752.43 186.34 C 753.16 187.25 770.97 185.19 761.92 188.58 C 765.01 192.50 776.45 185.71 773.98 191.11 C 734.45 187.21 695.79 197.36 657.23 204.28 C 641.32 203.84 626.30 209.94 610.49 210.51 C 591.50 211.78 571.55 210.18 553.50 217.35 C 544.99 217.61 536.48 217.59 528.00 216.95 C 506.90 223.87 483.84 221.89 462.85 224.49 C 441.16 225.94 419.31 226.26 397.61 225.40 C 391.70 223.42 400.28 216.58 395.10 213.62 C 395.24 211.13 395.52 208.65 395.74 206.16 C 395.97 204.19 395.70 201.53 398.33 201.34 C 429.57 197.72 460.87 202.23 491.99 204.99 C 510.57 205.35 529.12 202.26 547.72 203.47 C 560.64 202.58 573.43 200.03 586.35 200.40 C 615.02 200.75 643.04 194.40 671.54 191.66 Z" />
<path fill="#6f7d94" d=" M 976.31 190.97 C 984.18 188.80 991.97 186.33 1000.00 184.76 L 1000.00 195.68 C 970.50 206.08 938.69 205.91 908.83 214.83 C 877.07 220.47 845.91 231.27 813.08 228.14 C 753.64 236.62 695.09 250.67 635.48 258.48 C 605.83 264.08 576.30 272.04 545.93 270.85 C 504.93 281.22 462.99 294.79 420.71 293.03 C 424.64 290.01 425.49 285.15 423.94 280.47 C 424.89 274.10 432.40 276.06 437.15 275.27 C 472.45 277.76 505.69 263.59 540.00 258.02 C 566.68 255.38 593.48 254.24 619.34 246.27 C 663.55 240.61 707.07 230.52 750.51 222.60 C 774.02 217.49 798.29 219.62 822.02 215.53 C 853.83 218.89 883.39 204.66 914.63 202.79 C 935.17 198.75 956.14 196.76 976.31 190.97 Z" />
<path fill="#8996a9" d=" M 657.23 204.28 C 695.79 197.36 734.45 187.21 773.98 191.11 C 780.05 191.45 786.10 192.02 792.19 192.07 C 788.02 192.94 785.69 200.26 793.31 197.80 C 796.06 195.70 810.66 196.19 802.88 200.90 C 703.69 201.99 610.85 233.93 513.85 247.86 C 490.41 253.64 465.31 260.65 441.41 255.51 C 430.98 260.75 413.66 246.31 407.65 258.06 C 407.33 258.04 406.70 258.01 406.38 258.00 C 401.05 249.17 392.78 241.60 390.88 231.06 C 390.00 225.51 396.54 222.25 394.42 216.27 C 394.59 215.61 394.93 214.28 395.10 213.62 C 400.28 216.58 391.70 223.42 397.61 225.40 C 419.31 226.26 441.16 225.94 462.85 224.49 C 483.84 221.89 506.90 223.87 528.00 216.95 C 536.48 217.59 544.99 217.61 553.50 217.35 C 571.55 210.18 591.50 211.78 610.49 210.51 C 626.30 209.94 641.32 203.84 657.23 204.28 Z" />
<path fill="#7c8aa0" d=" M 885.04 197.52 C 915.66 198.31 946.06 194.47 976.31 190.97 C 956.14 196.76 935.17 198.75 914.63 202.79 C 883.39 204.66 853.83 218.89 822.02 215.53 C 798.29 219.62 774.02 217.49 750.51 222.60 C 707.07 230.52 663.55 240.61 619.34 246.27 C 593.48 254.24 566.68 255.38 540.00 258.02 C 505.69 263.59 472.45 277.76 437.15 275.27 C 432.40 276.06 424.89 274.10 423.94 280.47 C 418.53 272.99 412.87 265.68 407.65 258.06 C 413.66 246.31 430.98 260.75 441.41 255.51 C 465.31 260.65 490.41 253.64 513.85 247.86 C 610.85 233.93 703.69 201.99 802.88 200.90 C 830.36 207.78 857.74 202.12 885.04 197.52 Z" />
<path fill="#62718a" d=" M 908.83 214.83 C 938.69 205.91 970.50 206.08 1000.00 195.68 L 1000.00 204.09 C 968.44 215.08 934.64 216.41 902.56 225.49 C 872.88 233.31 842.78 239.16 812.08 241.09 C 785.78 245.59 759.40 249.68 733.61 256.58 C 710.16 265.12 685.74 269.62 661.63 274.66 C 650.82 279.34 639.99 282.70 628.44 285.46 C 613.27 293.51 592.52 290.27 575.19 297.27 C 557.16 299.81 540.55 309.07 522.20 308.33 C 485.77 313.62 448.29 313.43 411.30 314.30 C 403.58 318.28 395.49 315.12 396.58 305.77 C 397.01 303.48 398.59 301.71 400.12 300.07 C 401.48 299.72 402.86 299.49 404.25 299.22 C 409.18 298.51 413.81 296.53 418.18 294.21 C 419.02 293.80 419.86 293.41 420.71 293.03 C 462.99 294.79 504.93 281.22 545.93 270.85 C 576.30 272.04 605.83 264.08 635.48 258.48 C 695.09 250.67 753.64 236.62 813.08 228.14 C 845.91 231.27 877.07 220.47 908.83 214.83 Z" />
<path fill="#57657e" d=" M 902.56 225.49 C 934.64 216.41 968.44 215.08 1000.00 204.09 L 1000.00 213.62 C 974.85 224.50 946.84 223.67 921.01 232.05 C 903.85 236.55 886.57 240.56 869.57 245.55 C 827.76 254.53 784.61 257.56 743.82 270.92 C 725.25 280.17 705.01 285.87 685.22 292.14 C 666.93 296.90 651.97 310.82 632.92 312.94 C 614.98 319.06 594.92 315.52 577.30 323.30 C 568.45 327.77 557.99 324.19 548.54 326.33 C 532.43 326.82 517.15 332.45 501.02 330.82 C 472.44 326.25 443.68 334.69 415.03 334.04 C 407.27 338.17 390.27 331.27 389.99 343.96 C 391.29 338.46 389.74 332.56 384.79 329.61 C 388.73 326.72 395.49 325.03 394.99 319.11 C 394.96 314.60 395.16 310.09 396.58 305.77 C 395.49 315.12 403.58 318.28 411.30 314.30 C 448.29 313.43 485.77 313.62 522.20 308.33 C 540.55 309.07 557.16 299.81 575.19 297.27 C 592.52 290.27 613.27 293.51 628.44 285.46 C 639.99 282.70 650.82 279.34 661.63 274.66 C 685.74 269.62 710.16 265.12 733.61 256.58 C 759.40 249.68 785.78 245.59 812.08 241.09 C 842.78 239.16 872.88 233.31 902.56 225.49 Z" />
<path fill="#7c2c1a" d=" M 345.95 216.06 C 353.40 205.44 366.73 206.68 378.06 208.87 C 379.22 212.57 382.58 214.57 385.30 217.01 C 377.67 226.31 364.29 212.25 354.70 217.71 C 351.95 219.54 346.03 220.91 345.95 216.06 Z" />
<path fill="#97969e" d=" M 103.49 207.74 C 103.67 209.41 103.86 211.09 103.88 212.77 C 99.07 220.92 105.81 232.71 98.56 238.80 C 65.70 238.78 32.76 236.01 0.00 235.78 L 0.00 214.87 C 28.46 217.00 57.49 215.54 86.02 218.95 C 94.34 221.97 102.96 216.30 103.49 207.74 Z" />
<path fill="#7b8294" d=" M 98.56 238.80 C 105.81 232.71 99.07 220.92 103.88 212.77 C 104.02 218.23 103.73 223.75 104.85 229.14 C 105.25 230.69 105.82 232.18 106.23 233.73 C 103.96 243.93 110.18 255.18 105.37 264.24 C 70.28 263.54 35.01 259.81 0.00 258.01 L 0.00 235.78 C 32.76 236.01 65.70 238.78 98.56 238.80 Z" />
<path fill="#4e5971" d=" M 921.01 232.05 C 946.84 223.67 974.85 224.50 1000.00 213.62 L 1000.00 226.89 C 983.11 234.32 964.45 234.11 947.99 242.94 C 927.21 244.32 909.51 256.79 889.06 259.24 C 866.90 266.53 842.49 268.27 821.53 278.41 C 818.71 278.91 810.98 278.29 815.88 282.32 C 814.61 286.81 807.01 287.19 803.18 290.21 C 801.54 292.85 791.35 289.77 795.90 286.71 C 786.01 287.99 777.37 293.30 770.63 300.74 C 749.59 299.68 727.70 304.04 709.10 314.19 C 682.60 330.31 651.56 334.91 621.16 337.16 C 593.96 340.48 566.61 344.56 538.89 342.29 C 528.42 341.82 520.57 351.07 509.98 348.76 C 501.53 349.71 491.36 349.69 485.11 356.24 C 480.08 343.86 469.41 359.46 461.00 358.04 C 447.25 354.55 432.33 348.96 418.01 353.52 C 408.55 349.82 390.75 360.65 388.72 346.72 C 389.17 345.81 389.59 344.89 389.99 343.96 C 390.27 331.27 407.27 338.17 415.03 334.04 C 443.68 334.69 472.44 326.25 501.02 330.82 C 517.15 332.45 532.43 326.82 548.54 326.33 C 557.99 324.19 568.45 327.77 577.30 323.30 C 594.92 315.52 614.98 319.06 632.92 312.94 C 651.97 310.82 666.93 296.90 685.22 292.14 C 705.01 285.87 725.25 280.17 743.82 270.92 C 784.61 257.56 827.76 254.53 869.57 245.55 C 886.57 240.56 903.85 236.55 921.01 232.05 Z" />
<path fill="#a33922" d=" M 190.67 229.93 C 196.77 221.69 209.36 217.29 218.07 224.00 C 207.62 219.38 196.96 226.72 192.86 236.63 C 189.89 252.57 191.98 270.20 201.08 283.92 C 207.37 296.18 221.77 299.83 233.73 304.20 C 241.23 322.22 240.43 343.97 255.76 358.29 C 260.66 362.09 249.28 362.09 253.32 365.66 C 254.58 368.89 259.65 363.98 260.42 367.59 C 260.14 376.32 268.73 384.35 276.74 386.19 C 283.41 394.86 298.10 393.45 303.28 403.93 C 302.37 405.31 301.25 406.54 300.17 407.79 C 295.15 405.01 290.37 399.13 284.00 400.44 C 255.98 390.19 246.03 360.25 237.80 334.30 C 235.79 324.94 235.08 314.60 229.25 306.70 C 223.87 305.29 217.79 306.24 212.15 305.72 C 199.52 302.30 202.95 320.38 206.84 327.05 C 211.78 338.24 206.36 350.17 202.80 360.85 C 197.47 372.52 198.76 385.91 194.75 397.90 C 185.66 398.50 186.01 384.49 178.02 382.87 C 172.64 385.18 177.27 393.25 177.23 397.91 C 171.63 394.09 166.23 389.92 160.07 387.03 C 153.74 380.13 153.29 362.27 163.49 358.34 C 175.48 354.37 178.45 368.93 185.98 373.01 C 192.15 364.42 196.01 352.80 203.03 344.02 C 205.44 333.70 202.00 322.64 197.85 313.13 C 194.38 308.53 194.37 301.17 202.11 302.83 C 206.26 301.71 223.22 308.62 222.28 302.76 C 217.59 300.23 212.28 298.95 207.65 296.25 C 190.27 284.06 191.65 262.65 185.56 244.81 C 185.91 239.45 187.99 234.50 190.67 229.93 Z" />
<path fill="#dd5931" d=" M 192.86 236.63 C 196.96 226.72 207.62 219.38 218.07 224.00 C 218.75 224.60 219.41 225.23 220.04 225.88 C 226.26 233.06 235.07 238.73 236.34 248.66 C 236.52 259.98 248.62 266.77 245.10 278.98 C 242.68 286.97 247.02 298.19 239.85 303.95 C 237.82 304.14 235.77 304.14 233.73 304.20 C 221.77 299.83 207.37 296.18 201.08 283.92 C 191.98 270.20 189.89 252.57 192.86 236.63 Z" />
<path fill="#f7754f" d=" M 379.27 238.65 C 374.75 231.01 392.73 215.24 390.88 231.06 C 392.78 241.60 401.05 249.17 406.38 258.00 C 402.69 264.02 392.45 258.23 391.04 266.91 C 389.21 277.24 375.24 274.39 371.60 283.61 C 364.03 290.26 370.52 301.35 378.85 303.29 C 380.45 310.66 370.61 309.45 366.88 306.18 C 360.92 311.08 358.01 319.67 352.26 325.17 C 347.36 321.29 343.61 316.32 344.35 309.57 C 341.40 307.95 336.82 313.40 336.71 307.42 C 334.53 291.53 330.52 276.30 326.44 260.92 C 330.73 252.12 319.40 250.59 318.45 243.37 C 325.33 231.52 336.38 245.84 346.50 243.44 C 352.78 259.35 377.15 263.87 385.26 247.14 C 387.27 243.47 378.14 243.97 379.27 238.65 Z" />
<path fill="#a34228" d=" M 220.04 225.88 C 220.98 226.38 221.94 226.85 222.91 227.28 C 225.11 228.27 227.50 228.70 229.84 229.22 C 237.87 236.02 237.06 247.70 243.62 255.31 C 254.83 268.44 259.38 296.59 239.85 303.95 C 247.02 298.19 242.68 286.97 245.10 278.98 C 248.62 266.77 236.52 259.98 236.34 248.66 C 235.07 238.73 226.26 233.06 220.04 225.88 Z" />
<path fill="#475065" d=" M 947.99 242.94 C 964.45 234.11 983.11 234.32 1000.00 226.89 L 1000.00 246.01 C 980.14 242.99 963.48 257.96 944.20 259.80 C 929.93 264.74 913.89 266.12 901.26 275.23 C 898.31 281.18 889.00 275.74 886.76 281.80 C 881.05 292.78 867.96 284.40 860.95 293.02 C 854.15 302.51 842.94 304.29 834.07 310.66 C 830.46 307.56 827.84 310.70 824.89 312.91 C 815.91 309.25 811.24 322.85 801.96 317.08 C 793.28 323.04 781.38 321.53 773.42 328.48 C 763.75 328.72 751.66 328.72 745.08 337.05 C 740.30 332.06 731.80 334.56 727.09 338.80 C 715.52 330.53 704.23 342.90 692.69 344.86 C 680.90 352.16 666.54 343.04 654.98 351.97 C 641.90 352.19 632.18 364.72 618.59 365.27 C 613.02 368.37 606.98 368.07 603.76 361.81 C 599.34 368.90 594.79 376.30 584.05 373.16 C 589.89 378.58 583.35 379.91 579.97 384.02 C 569.05 390.87 553.86 390.17 541.04 394.05 C 538.65 395.36 532.11 395.07 534.91 398.90 C 528.50 407.01 517.50 397.99 508.90 400.08 C 497.76 400.53 486.10 393.88 475.50 398.45 C 471.31 400.60 462.49 393.77 461.28 399.01 C 455.43 404.15 455.45 394.16 453.36 400.41 C 449.85 403.03 446.32 394.78 442.29 398.14 C 436.47 405.48 427.15 397.17 419.52 398.89 C 413.41 403.50 406.18 395.78 399.83 398.21 C 395.62 394.69 382.66 399.93 387.07 391.05 C 388.49 383.28 393.82 370.64 386.04 364.85 C 383.47 358.69 379.75 348.98 388.72 346.72 C 390.75 360.65 408.55 349.82 418.01 353.52 C 432.33 348.96 447.25 354.55 461.00 358.04 C 469.41 359.46 480.08 343.86 485.11 356.24 C 491.36 349.69 501.53 349.71 509.98 348.76 C 520.57 351.07 528.42 341.82 538.89 342.29 C 566.61 344.56 593.96 340.48 621.16 337.16 C 651.56 334.91 682.60 330.31 709.10 314.19 C 727.70 304.04 749.59 299.68 770.63 300.74 C 777.37 293.30 786.01 287.99 795.90 286.71 C 791.35 289.77 801.54 292.85 803.18 290.21 C 807.01 287.19 814.61 286.81 815.88 282.32 C 810.98 278.29 818.71 278.91 821.53 278.41 C 842.49 268.27 866.90 266.53 889.06 259.24 C 909.51 256.79 927.21 244.32 947.99 242.94 Z" />
<path fill="#6c2011" d=" M 354.30 233.46 C 351.14 226.79 373.99 225.90 366.33 234.38 C 361.39 234.68 359.78 240.45 354.76 240.41 C 354.32 238.15 352.95 235.65 354.30 233.46 Z" />
<path fill="#891e12" d=" M 203.93 228.99 C 218.85 223.79 222.43 243.51 217.21 253.14 C 217.08 259.85 208.63 258.48 210.36 252.43 C 219.08 249.03 214.63 243.49 210.51 238.54 C 212.26 232.48 204.98 232.51 203.93 228.99 Z" />
<path fill="#636d81" d=" M 106.23 233.73 C 108.01 246.36 112.50 258.32 115.19 270.75 C 114.99 278.33 119.20 286.75 114.77 293.77 C 104.94 295.98 94.51 294.68 84.45 294.34 C 67.75 289.17 49.32 292.84 31.80 289.35 C 21.29 287.05 10.51 288.27 0.00 286.21 L 0.00 258.01 C 35.01 259.81 70.28 263.54 105.37 264.24 C 110.18 255.18 103.96 243.93 106.23 233.73 Z" />
<path fill="#391b18" d=" M 178.08 285.10 C 182.80 272.06 181.31 257.94 185.56 244.81 C 191.65 262.65 190.27 284.06 207.65 296.25 C 208.94 297.75 210.21 299.30 211.26 300.99 C 202.49 302.14 195.05 292.54 186.59 296.41 C 175.38 297.24 182.00 309.19 182.73 315.57 C 173.87 319.21 183.08 329.05 178.52 335.49 C 170.16 346.86 152.22 345.85 139.28 346.88 C 135.46 344.30 135.68 336.76 129.85 338.07 C 128.64 337.45 127.55 336.59 127.21 335.21 C 135.92 321.70 142.52 341.70 152.83 335.92 C 164.18 335.37 165.42 322.03 167.72 313.56 C 169.06 303.30 177.00 295.55 178.08 285.10 Z" />
<path fill="#40495d" d=" M 944.20 259.80 C 963.48 257.96 980.14 242.99 1000.00 246.01 L 1000.00 264.46 C 997.35 265.84 992.71 267.06 994.78 270.93 C 984.26 274.03 968.65 279.04 963.10 291.07 C 958.08 292.62 953.90 295.91 951.62 300.70 C 944.26 302.90 931.68 299.88 927.27 308.06 C 930.93 316.40 920.71 308.51 917.63 313.80 C 917.89 324.61 903.63 314.54 898.20 314.91 C 892.51 324.81 878.68 325.95 869.47 328.27 C 868.30 333.22 862.71 326.91 861.62 331.67 C 854.07 345.35 837.33 335.42 827.52 344.47 C 812.35 348.28 807.24 363.71 791.00 366.08 C 781.15 375.82 768.22 377.12 757.76 385.68 C 742.22 396.40 722.69 380.47 707.39 390.32 C 705.00 389.63 694.78 394.50 699.11 396.89 C 685.00 396.75 670.99 397.01 657.05 399.91 C 646.86 394.87 635.61 402.49 627.34 398.31 C 620.39 397.40 617.06 407.04 609.64 401.38 C 602.93 398.70 615.31 406.77 604.31 403.57 C 597.36 404.83 592.22 398.31 585.66 396.79 C 572.15 393.25 561.01 406.77 547.20 400.63 C 543.10 400.09 539.01 399.34 534.91 398.90 C 532.11 395.07 538.65 395.36 541.04 394.05 C 553.86 390.17 569.05 390.87 579.97 384.02 C 583.35 379.91 589.89 378.58 584.05 373.16 C 594.79 376.30 599.34 368.90 603.76 361.81 C 606.98 368.07 613.02 368.37 618.59 365.27 C 632.18 364.72 641.90 352.19 654.98 351.97 C 666.54 343.04 680.90 352.16 692.69 344.86 C 704.23 342.90 715.52 330.53 727.09 338.80 C 731.80 334.56 740.30 332.06 745.08 337.05 C 751.66 328.72 763.75 328.72 773.42 328.48 C 781.38 321.53 793.28 323.04 801.96 317.08 C 811.24 322.85 815.91 309.25 824.89 312.91 C 827.84 310.70 830.46 307.56 834.07 310.66 C 842.94 304.29 854.15 302.51 860.95 293.02 C 867.96 284.40 881.05 292.78 886.76 281.80 C 889.00 275.74 898.31 281.18 901.26 275.23 C 913.89 266.12 929.93 264.74 944.20 259.80 Z" />
<path fill="#81261d" d=" M 222.32 257.22 C 231.07 256.32 225.93 271.46 233.73 274.37 C 236.12 284.83 225.58 277.94 222.91 274.12 C 214.91 271.38 216.46 261.22 222.32 257.22 Z" />
<path fill="#3b4254" d=" M 994.78 270.93 C 992.71 267.06 997.35 265.84 1000.00 264.46 L 1000.00 339.03 C 993.52 344.25 986.77 340.11 980.08 343.35 C 976.85 348.78 969.71 342.17 965.20 344.25 C 946.47 348.60 928.26 350.68 911.04 359.82 C 903.34 352.76 896.09 365.36 887.16 363.23 C 879.82 369.17 870.75 364.26 862.18 364.76 C 849.91 361.56 840.51 372.02 830.04 375.02 C 828.11 382.07 820.84 384.89 817.43 391.45 C 810.20 395.20 800.94 392.73 793.74 397.51 C 767.08 388.80 754.96 429.20 727.88 419.34 C 728.39 414.85 717.26 414.07 712.44 418.41 C 705.22 421.25 719.75 412.80 714.22 412.94 C 720.67 402.81 707.55 397.04 699.11 396.89 C 694.78 394.50 705.00 389.63 707.39 390.32 C 722.69 380.47 742.22 396.40 757.76 385.68 C 768.22 377.12 781.15 375.82 791.00 366.08 C 807.24 363.71 812.35 348.28 827.52 344.47 C 837.33 335.42 854.07 345.35 861.62 331.67 C 862.71 326.91 868.30 333.22 869.47 328.27 C 878.68 325.95 892.51 324.81 898.20 314.91 C 903.63 314.54 917.89 324.61 917.63 313.80 C 920.71 308.51 930.93 316.40 927.27 308.06 C 931.68 299.88 944.26 302.90 951.62 300.70 C 953.90 295.91 958.08 292.62 963.10 291.07 C 968.65 279.04 984.26 274.03 994.78 270.93 Z" />
<path fill="#515a70" d=" M 115.19 270.75 C 120.58 287.03 122.78 303.73 123.40 320.76 C 122.70 339.43 98.87 332.07 86.76 333.37 C 71.55 328.95 55.68 326.46 40.38 322.54 C 26.53 322.30 14.27 312.50 0.00 313.88 L 0.00 286.21 C 10.51 288.27 21.29 287.05 31.80 289.35 C 49.32 292.84 67.75 289.17 84.45 294.34 C 94.51 294.68 104.94 295.98 114.77 293.77 C 119.20 286.75 114.99 278.33 115.19 270.75 Z" />
<path fill="#7c281b" d=" M 400.88 289.87 C 406.83 288.23 413.80 289.73 418.18 294.21 C 413.81 296.53 409.18 298.51 404.25 299.22 C 406.91 295.11 397.46 294.09 400.88 289.87 Z" />
<path fill="#562721" d=" M 186.59 296.41 C 195.05 292.54 202.49 302.14 211.26 300.99 C 210.21 299.30 208.94 297.75 207.65 296.25 C 212.28 298.95 217.59 300.23 222.28 302.76 C 223.22 308.62 206.26 301.71 202.11 302.83 C 197.63 300.98 190.94 298.95 187.08 302.25 C 186.98 308.06 191.89 312.28 194.19 317.26 C 194.71 325.06 196.67 332.92 195.82 340.75 C 187.95 345.39 181.63 356.09 171.08 350.96 C 153.12 343.29 137.71 364.94 145.85 380.31 C 139.97 378.77 134.65 375.72 128.83 374.00 C 127.53 373.45 126.21 372.93 124.90 372.41 C 130.26 371.36 128.51 365.35 129.36 361.31 C 129.75 353.77 135.73 344.72 129.85 338.07 C 135.68 336.76 135.46 344.30 139.28 346.88 C 152.22 345.85 170.16 346.86 178.52 335.49 C 183.08 329.05 173.87 319.21 182.73 315.57 C 182.00 309.19 175.38 297.24 186.59 296.41 Z" />
<path fill="#7d3728" d=" M 394.99 319.11 C 377.68 318.90 391.45 302.56 400.12 300.07 C 398.59 301.71 397.01 303.48 396.58 305.77 C 395.16 310.09 394.96 314.60 394.99 319.11 Z" />
<path fill="#7d2f22" d=" M 187.08 302.25 C 190.94 298.95 197.63 300.98 202.11 302.83 C 194.37 301.17 194.38 308.53 197.85 313.13 C 202.00 322.64 205.44 333.70 203.03 344.02 C 196.01 352.80 192.15 364.42 185.98 373.01 C 178.45 368.93 175.48 354.37 163.49 358.34 C 153.29 362.27 153.74 380.13 160.07 387.03 C 155.28 384.87 150.56 382.61 145.85 380.31 C 137.71 364.94 153.12 343.29 171.08 350.96 C 181.63 356.09 187.95 345.39 195.82 340.75 C 196.67 332.92 194.71 325.06 194.19 317.26 C 191.89 312.28 186.98 308.06 187.08 302.25 Z" />
<path fill="#c1492c" d=" M 206.84 327.05 C 202.95 320.38 199.52 302.30 212.15 305.72 C 207.72 320.68 218.66 334.89 213.86 349.84 C 209.05 374.44 207.15 399.88 200.32 423.85 C 200.66 425.70 201.25 427.50 201.77 429.32 C 193.90 418.63 187.22 406.84 177.23 397.91 C 177.27 393.25 172.64 385.18 178.02 382.87 C 186.01 384.49 185.66 398.50 194.75 397.90 C 198.76 385.91 197.47 372.52 202.80 360.85 C 206.36 350.17 211.78 338.24 206.84 327.05 Z" />
<path fill="#e05d2d" d=" M 212.15 305.72 C 217.79 306.24 223.87 305.29 229.25 306.70 C 235.08 314.60 235.79 324.94 237.80 334.30 C 246.03 360.25 255.98 390.19 284.00 400.44 C 290.37 399.13 295.15 405.01 300.17 407.79 C 296.42 413.53 294.83 420.30 292.74 426.75 L 292.33 427.41 C 280.05 433.77 290.05 414.09 280.90 412.02 C 268.39 420.81 265.31 445.33 246.70 447.69 C 239.55 451.35 238.52 471.72 228.53 466.44 C 222.96 463.21 220.93 456.40 215.71 453.00 C 211.97 444.59 206.49 437.16 201.77 429.32 C 201.25 427.50 200.66 425.70 200.32 423.85 C 207.15 399.88 209.05 374.44 213.86 349.84 C 218.66 334.89 207.72 320.68 212.15 305.72 Z" />
<path fill="#2e130d" d=" M 248.16 311.14 C 259.30 304.51 257.32 323.01 266.09 323.85 C 258.48 331.49 270.20 340.90 273.86 347.13 C 283.42 352.36 292.45 354.91 302.15 356.79 C 305.33 365.70 321.48 359.39 318.55 369.67 C 324.66 364.98 327.04 374.03 333.25 371.54 C 340.25 372.45 354.66 375.49 346.92 383.85 C 360.58 379.40 367.06 392.11 378.25 395.54 C 354.96 405.72 328.63 399.20 304.31 401.87 C 301.93 398.57 300.31 394.39 296.57 392.35 C 284.92 388.65 278.01 377.54 266.76 373.26 C 268.75 371.75 271.40 369.50 269.09 366.97 C 253.94 353.80 236.07 331.44 248.16 311.14 Z" />
<path fill="#434b5e" d=" M 0.00 313.88 C 14.27 312.50 26.53 322.30 40.38 322.54 C 55.68 326.46 71.55 328.95 86.76 333.37 C 98.87 332.07 122.70 339.43 123.40 320.76 C 124.25 325.67 125.38 330.56 127.21 335.21 C 127.55 336.59 128.64 337.45 129.85 338.07 C 135.73 344.72 129.75 353.77 129.36 361.31 C 128.51 365.35 130.26 371.36 124.90 372.41 C 120.51 371.24 116.87 367.42 112.12 367.90 C 97.33 376.22 80.98 384.18 63.15 381.08 C 53.62 387.94 39.97 387.17 32.43 377.63 C 30.07 370.43 23.41 375.29 18.08 374.97 C 11.46 375.36 6.19 371.17 0.00 369.79 L 0.00 313.88 Z" />
<path fill="#e26947" d=" M 362.28 332.21 C 370.57 333.89 376.76 330.05 384.79 329.61 C 389.74 332.56 391.29 338.46 389.99 343.96 C 389.59 344.89 389.17 345.81 388.72 346.72 C 379.75 348.98 383.47 358.69 386.04 364.85 C 386.37 369.57 387.03 374.30 387.09 379.05 C 380.35 382.64 378.75 372.75 373.58 370.61 C 370.07 368.92 367.40 366.10 364.84 363.25 C 366.14 359.30 363.10 358.04 359.99 357.04 C 351.07 350.14 355.77 338.96 362.28 332.21 Z" />
<path fill="#343948" d=" M 980.08 343.35 C 986.77 340.11 993.52 344.25 1000.00 339.03 L 1000.00 362.70 C 993.69 364.42 989.06 366.91 982.28 364.14 C 983.24 380.56 959.15 395.78 945.16 382.85 C 934.00 380.87 923.56 386.54 912.22 387.39 C 905.34 385.04 898.45 397.54 908.18 397.71 C 908.27 399.72 902.70 403.28 911.56 402.02 C 907.42 411.74 919.71 412.44 924.23 418.09 C 915.54 414.54 915.23 425.16 908.86 429.79 C 900.57 431.62 890.45 437.97 883.75 429.28 C 878.60 426.97 875.81 413.86 869.92 421.88 C 867.50 427.73 862.67 422.69 859.99 419.95 C 853.47 416.10 848.23 424.41 842.21 422.99 C 833.78 419.08 827.50 427.75 819.33 425.11 C 815.43 438.06 804.25 421.37 796.36 425.43 C 792.12 428.38 792.37 419.66 788.66 422.64 C 785.32 426.12 780.29 423.33 776.45 425.46 C 773.10 435.91 757.58 426.95 752.99 434.95 C 758.54 437.94 767.83 436.95 771.71 444.46 C 776.49 447.78 775.70 437.16 780.67 439.23 C 783.71 441.07 793.34 438.44 792.00 444.54 C 782.30 446.46 777.74 456.70 774.77 465.01 C 759.45 445.80 733.83 443.02 711.67 438.44 C 709.86 437.51 705.85 436.07 709.26 434.32 C 716.51 430.78 722.15 424.88 727.88 419.34 C 754.96 429.20 767.08 388.80 793.74 397.51 C 800.94 392.73 810.20 395.20 817.43 391.45 C 820.84 384.89 828.11 382.07 830.04 375.02 C 840.51 372.02 849.91 361.56 862.18 364.76 C 870.75 364.26 879.82 369.17 887.16 363.23 C 896.09 365.36 903.34 352.76 911.04 359.82 C 928.26 350.68 946.47 348.60 965.20 344.25 C 969.71 342.17 976.85 348.78 980.08 343.35 Z" />
<path fill="#2f323e" d=" M 982.28 364.14 C 989.06 366.91 993.69 364.42 1000.00 362.70 L 1000.00 436.96 C 984.11 436.46 967.07 431.05 953.62 442.60 C 939.79 444.29 926.74 450.98 913.30 452.27 C 909.91 454.64 910.18 460.60 904.54 458.43 C 904.48 448.33 888.35 457.68 881.16 460.07 C 878.23 464.43 873.58 461.55 869.81 461.84 C 865.98 467.97 859.22 463.88 853.93 466.70 C 842.68 476.08 827.07 475.85 814.99 483.02 C 802.60 478.79 788.63 477.54 774.87 476.01 C 774.23 475.03 773.57 474.07 772.92 473.12 C 774.24 470.70 777.12 467.69 774.77 465.01 C 777.74 456.70 782.30 446.46 792.00 444.54 C 793.34 438.44 783.71 441.07 780.67 439.23 C 775.70 437.16 776.49 447.78 771.71 444.46 C 767.83 436.95 758.54 437.94 752.99 434.95 C 757.58 426.95 773.10 435.91 776.45 425.46 C 780.29 423.33 785.32 426.12 788.66 422.64 C 792.37 419.66 792.12 428.38 796.36 425.43 C 804.25 421.37 815.43 438.06 819.33 425.11 C 827.50 427.75 833.78 419.08 842.21 422.99 C 848.23 424.41 853.47 416.10 859.99 419.95 C 862.67 422.69 867.50 427.73 869.92 421.88 C 875.81 413.86 878.60 426.97 883.75 429.28 C 890.45 437.97 900.57 431.62 908.86 429.79 C 915.23 425.16 915.54 414.54 924.23 418.09 C 919.71 412.44 907.42 411.74 911.56 402.02 C 902.70 403.28 908.27 399.72 908.18 397.71 C 898.45 397.54 905.34 385.04 912.22 387.39 C 923.56 386.54 934.00 380.87 945.16 382.85 C 959.15 395.78 983.24 380.56 982.28 364.14 Z" />
<path fill="#4b4853" d=" M 386.04 364.85 C 393.82 370.64 388.49 383.28 387.07 391.05 C 382.66 399.93 395.62 394.69 399.83 398.21 C 406.18 395.78 413.41 403.50 419.52 398.89 C 427.15 397.17 436.47 405.48 442.29 398.14 C 446.32 394.78 449.85 403.03 453.36 400.41 C 455.45 394.16 455.43 404.15 461.28 399.01 C 462.49 393.77 471.31 400.60 475.50 398.45 C 486.10 393.88 497.76 400.53 508.90 400.08 C 517.50 397.99 528.50 407.01 534.91 398.90 C 539.01 399.34 543.10 400.09 547.20 400.63 C 561.01 406.77 572.15 393.25 585.66 396.79 C 592.22 398.31 597.36 404.83 604.31 403.57 C 615.31 406.77 602.93 398.70 609.64 401.38 C 617.06 407.04 620.39 397.40 627.34 398.31 C 635.61 402.49 646.86 394.87 657.05 399.91 C 670.99 397.01 685.00 396.75 699.11 396.89 C 707.55 397.04 720.67 402.81 714.22 412.94 C 709.41 416.27 702.67 417.35 700.11 423.21 C 686.19 424.25 672.64 429.98 658.60 428.46 C 653.80 425.61 647.99 423.43 644.54 429.24 C 634.95 430.10 625.41 427.06 616.38 425.67 C 608.34 413.15 595.48 431.05 592.75 439.03 C 588.13 439.14 583.36 439.47 579.12 441.44 C 569.48 436.82 583.67 420.66 570.07 416.84 C 553.58 416.72 536.19 399.49 520.59 411.63 C 514.02 418.54 504.12 416.48 496.91 421.95 C 487.26 419.22 478.41 412.18 467.68 414.63 C 464.08 403.79 449.71 410.39 441.04 410.02 C 435.06 409.89 435.94 417.12 436.83 420.99 C 436.41 428.07 433.95 437.33 441.16 441.86 C 422.14 440.20 403.01 446.04 384.08 441.04 C 358.39 436.22 332.22 437.01 306.15 437.53 C 299.05 438.46 289.80 436.20 292.74 426.75 C 294.83 420.30 296.42 413.53 300.17 407.79 C 301.25 406.54 302.37 405.31 303.28 403.93 C 303.54 403.42 304.05 402.39 304.31 401.87 C 328.63 399.20 354.96 405.72 378.25 395.54 C 380.35 394.32 381.79 392.27 382.97 390.21 C 384.52 386.58 387.11 383.14 387.09 379.05 C 387.03 374.30 386.37 369.57 386.04 364.85 Z" />
<path fill="#3d3d48" d=" M 63.15 381.08 C 80.98 384.18 97.33 376.22 112.12 367.90 C 104.57 378.17 93.19 383.88 80.69 385.74 C 54.59 398.95 37.06 423.63 14.49 441.64 C 9.67 442.08 4.69 441.38 0.00 442.82 L 0.00 369.79 C 6.19 371.17 11.46 375.36 18.08 374.97 C 23.41 375.29 30.07 370.43 32.43 377.63 C 39.97 387.17 53.62 387.94 63.15 381.08 Z" />
<path fill="#202228" d=" M 112.12 367.90 C 116.87 367.42 120.51 371.24 124.90 372.41 C 126.21 372.93 127.53 373.45 128.83 374.00 C 133.23 378.86 145.52 381.10 138.02 387.92 C 144.79 390.34 150.29 397.31 156.32 402.04 C 152.78 402.62 149.33 401.30 145.83 400.99 C 143.09 397.16 139.07 397.50 137.83 402.26 C 131.16 399.89 125.69 394.70 119.20 391.70 C 115.79 390.62 123.72 386.67 119.38 386.62 C 114.16 383.66 111.83 388.93 109.17 392.13 C 93.49 415.22 71.14 432.92 56.93 457.22 C 53.90 443.87 67.25 435.65 67.81 422.76 C 55.27 422.91 45.80 433.31 35.89 439.93 C 21.02 450.81 13.72 468.42 0.00 480.47 L 0.00 442.82 C 4.69 441.38 9.67 442.08 14.49 441.64 C 37.06 423.63 54.59 398.95 80.69 385.74 C 93.19 383.88 104.57 378.17 112.12 367.90 Z" />
<path fill="#332716" d=" M 128.83 374.00 C 134.65 375.72 139.97 378.77 145.85 380.31 C 150.56 382.61 155.28 384.87 160.07 387.03 C 166.23 389.92 171.63 394.09 177.23 397.91 C 187.22 406.84 193.90 418.63 201.77 429.32 C 206.49 437.16 211.97 444.59 215.71 453.00 C 219.48 461.18 226.51 467.05 231.97 473.99 C 232.26 474.49 232.83 475.49 233.12 476.00 C 234.88 479.01 238.26 480.53 240.81 482.80 C 254.90 497.58 262.67 517.26 279.05 530.11 C 281.13 529.30 283.66 526.83 285.29 529.69 C 288.03 556.81 290.14 584.71 291.71 612.21 C 291.85 617.24 291.80 637.04 299.76 627.79 C 309.04 626.33 312.49 616.62 320.87 613.84 C 327.14 613.85 329.47 600.24 334.03 608.07 C 345.83 614.40 345.13 629.79 350.50 640.69 C 360.98 644.80 364.05 625.57 373.57 625.34 C 377.89 630.69 392.78 635.25 391.13 625.02 C 393.84 617.38 403.61 613.56 406.02 606.13 C 399.50 599.15 401.75 587.68 411.03 584.15 C 418.18 578.96 417.21 568.87 421.47 562.25 C 422.40 556.30 437.02 550.35 426.09 546.67 C 433.65 531.86 440.08 515.21 450.97 502.00 C 457.72 496.14 455.12 511.43 456.44 514.65 C 461.66 527.84 441.63 538.50 449.04 552.02 C 456.84 570.69 485.26 546.04 491.17 566.87 C 497.59 567.95 502.55 575.86 508.63 570.59 C 526.06 569.76 548.20 575.13 556.79 592.33 C 568.12 595.27 575.59 579.98 587.79 582.20 C 601.40 587.52 612.37 598.15 626.68 602.34 C 637.06 613.29 626.03 626.57 622.34 638.02 C 629.12 646.05 640.97 643.77 649.99 647.03 C 655.10 649.92 660.76 648.83 664.34 644.22 C 670.71 645.57 678.44 644.25 681.27 651.79 C 689.37 650.22 690.38 637.15 698.96 635.12 C 705.59 641.03 715.75 639.63 721.76 646.26 C 732.72 652.71 741.58 635.06 751.62 643.34 C 750.83 648.46 752.15 654.49 757.20 647.17 C 776.52 645.39 768.56 618.91 768.84 605.99 C 765.91 595.01 782.25 585.96 790.00 593.00 C 794.90 600.06 800.85 591.90 805.35 588.28 C 811.09 591.56 823.62 590.36 818.22 602.35 C 828.47 597.27 827.78 585.74 826.25 576.30 C 833.12 571.78 837.30 556.42 824.08 558.75 C 827.22 550.92 821.22 549.42 814.51 550.54 C 816.20 545.33 820.87 539.47 822.77 534.43 C 813.01 532.72 813.14 521.80 815.68 514.33 C 812.21 503.17 825.85 502.01 829.06 493.93 C 838.52 498.50 847.79 489.26 856.86 494.07 C 861.99 487.04 872.64 488.14 876.95 479.94 C 882.15 478.66 890.54 471.53 892.78 479.70 C 900.57 493.35 917.29 482.01 928.77 487.74 C 937.48 490.82 940.52 479.60 944.87 474.92 C 953.78 472.77 962.26 475.49 970.21 478.81 C 975.62 486.11 972.03 497.87 980.45 503.49 C 987.36 505.20 993.95 507.82 1000.00 511.59 L 1000.00 604.49 C 992.70 598.75 982.66 595.46 978.67 586.39 C 974.49 578.76 962.08 584.54 958.75 576.19 C 953.28 568.49 949.51 554.99 957.79 547.79 C 960.18 539.61 959.94 528.85 955.88 520.97 C 950.31 527.53 947.37 538.41 937.52 540.66 C 933.89 544.66 934.36 549.78 936.81 554.14 C 945.98 574.08 911.71 582.18 922.66 602.46 C 932.43 608.60 929.81 593.86 937.50 594.24 C 941.11 593.25 948.71 593.37 948.63 598.64 C 945.71 604.80 949.61 611.02 947.35 617.34 C 960.08 615.33 973.52 628.61 963.54 640.49 C 959.71 649.70 946.08 638.46 945.60 630.95 C 946.33 622.26 937.52 617.55 929.82 618.26 C 926.08 616.42 924.89 605.88 918.65 610.64 C 920.74 620.01 908.29 623.60 911.88 633.23 C 907.22 629.12 911.76 619.77 904.58 617.42 C 894.48 613.87 881.41 612.78 872.77 620.68 C 866.63 621.91 858.96 624.06 855.29 627.74 C 853.43 612.67 845.88 629.27 839.13 630.09 C 830.28 630.56 820.36 636.03 817.50 644.55 C 816.93 652.63 808.11 658.60 811.05 667.00 L 567.66 667.00 C 564.20 664.81 559.60 666.77 558.54 661.31 C 534.21 668.52 516.61 647.51 498.64 635.37 C 475.96 632.67 455.62 616.45 431.95 622.98 C 423.23 626.13 414.98 617.10 406.48 621.63 C 406.01 634.13 419.76 641.37 426.63 650.35 C 431.55 655.39 427.32 663.29 422.62 667.00 L 288.90 667.00 C 290.78 640.20 292.83 612.43 285.57 586.45 C 287.51 566.56 287.41 535.73 265.99 525.87 C 268.81 534.44 273.00 545.10 271.06 553.14 C 265.97 548.97 267.47 539.87 261.47 535.55 C 258.88 533.04 258.32 529.79 260.84 527.02 C 248.27 531.52 243.11 513.24 248.39 505.66 C 238.50 497.15 236.62 480.93 223.26 475.79 C 220.09 474.22 216.47 471.59 220.46 468.62 C 213.22 453.10 194.27 444.57 187.97 428.03 C 179.73 416.43 164.72 413.71 156.32 402.04 C 150.29 397.31 144.79 390.34 138.02 387.92 C 145.52 381.10 133.23 378.86 128.83 374.00 Z" />
<path fill="#181213" d=" M 109.17 392.13 C 111.83 388.93 114.16 383.66 119.38 386.62 C 123.72 386.67 115.79 390.62 119.20 391.70 C 125.69 394.70 131.16 399.89 137.83 402.26 C 139.07 397.50 143.09 397.16 145.83 400.99 C 161.26 415.65 178.16 428.54 181.40 450.60 C 190.26 452.82 182.42 467.14 191.88 465.35 C 192.79 478.57 213.91 476.26 209.50 490.58 C 215.72 492.23 213.05 499.61 215.95 504.04 C 220.38 508.17 208.88 513.28 214.94 515.53 C 221.31 514.15 225.44 526.81 218.19 527.32 C 209.80 529.35 217.53 537.98 216.29 542.28 C 207.18 543.73 209.29 552.94 203.61 557.74 C 197.67 557.89 184.08 550.48 186.27 561.32 C 180.31 564.56 185.28 570.79 190.68 568.08 C 192.33 572.40 195.21 575.87 200.65 573.21 C 200.27 579.29 206.16 585.10 201.61 590.62 C 198.97 594.11 203.20 597.13 205.55 593.57 C 209.71 587.12 210.09 598.13 211.27 601.70 C 214.19 607.40 219.36 619.71 207.71 618.73 C 204.92 626.58 195.23 630.62 200.83 640.15 C 206.88 649.15 213.85 657.02 218.26 667.00 L 166.01 667.00 C 165.27 657.86 170.64 649.80 166.06 641.06 C 174.48 645.65 173.00 633.10 180.32 633.21 C 184.10 631.81 188.03 630.90 186.63 637.53 C 193.27 641.44 195.57 635.25 194.76 630.32 C 192.31 625.19 186.11 622.66 183.37 618.22 C 180.32 609.73 194.18 610.53 191.33 603.71 C 182.69 603.50 175.69 601.38 181.04 591.93 C 174.50 593.98 171.71 594.08 168.34 588.43 C 162.75 582.28 163.45 594.99 156.57 590.60 C 155.40 586.63 159.26 582.80 155.86 579.30 C 157.48 574.78 147.49 571.71 152.20 568.71 C 149.61 566.14 146.19 567.59 143.10 567.94 C 135.70 566.43 145.39 551.84 135.03 554.84 C 130.32 555.05 118.09 550.06 125.72 544.78 C 129.71 543.64 131.34 539.37 128.93 535.98 C 134.86 536.52 135.99 544.14 135.40 549.12 C 138.74 550.17 146.15 543.46 139.93 543.75 C 146.86 540.99 151.19 535.56 154.03 528.92 C 149.66 530.13 144.85 530.37 146.65 523.23 C 141.11 523.20 134.80 512.89 135.71 525.93 C 126.13 527.18 125.13 516.85 119.87 513.01 C 120.22 510.20 124.22 510.67 125.85 508.76 C 133.23 503.27 120.95 494.47 128.22 489.17 C 132.04 485.25 135.85 497.53 140.30 491.47 C 131.03 490.05 122.72 479.46 130.36 471.36 C 122.64 469.37 123.44 482.42 116.89 479.14 C 120.09 469.93 111.07 471.58 106.81 467.07 C 113.48 463.70 110.37 451.64 102.01 456.00 C 96.73 459.79 94.51 453.63 98.92 451.86 C 102.28 448.47 99.97 439.98 94.52 439.87 C 95.49 449.11 83.79 444.51 78.18 445.68 C 72.63 437.55 65.32 454.06 68.24 456.56 C 74.23 465.48 57.93 465.05 63.12 474.86 C 61.53 478.73 57.08 481.54 55.94 485.98 C 53.42 505.81 41.74 523.56 41.83 543.94 C 39.55 552.16 39.21 560.62 36.80 568.84 C 37.55 574.12 32.74 580.69 27.61 576.31 C 24.65 568.07 29.67 559.41 26.48 551.12 C 38.48 536.06 32.08 516.48 39.86 499.87 C 42.19 494.03 47.65 488.81 45.19 481.95 C 44.87 473.31 52.04 464.07 49.75 456.12 C 38.52 455.41 37.97 469.50 27.26 469.59 C 22.55 470.46 19.68 474.60 15.31 476.21 C 17.67 486.15 3.79 489.26 0.00 497.29 L 0.00 480.47 C 13.72 468.42 21.02 450.81 35.89 439.93 C 45.80 433.31 55.27 422.91 67.81 422.76 C 67.25 435.65 53.90 443.87 56.93 457.22 C 71.14 432.92 93.49 415.22 109.17 392.13 Z" />
<path fill="#241513" d=" M 145.83 400.99 C 149.33 401.30 152.78 402.62 156.32 402.04 C 164.72 413.71 179.73 416.43 187.97 428.03 C 194.27 444.57 213.22 453.10 220.46 468.62 C 216.47 471.59 220.09 474.22 223.26 475.79 C 236.62 480.93 238.50 497.15 248.39 505.66 C 243.11 513.24 248.27 531.52 260.84 527.02 C 258.32 529.79 258.88 533.04 261.47 535.55 C 267.47 539.87 265.97 548.97 271.06 553.14 C 273.00 545.10 268.81 534.44 265.99 525.87 C 287.41 535.73 287.51 566.56 285.57 586.45 C 292.83 612.43 290.78 640.20 288.90 667.00 L 218.26 667.00 C 213.85 657.02 206.88 649.15 200.83 640.15 C 195.23 630.62 204.92 626.58 207.71 618.73 C 219.36 619.71 214.19 607.40 211.27 601.70 C 210.09 598.13 209.71 587.12 205.55 593.57 C 203.20 597.13 198.97 594.11 201.61 590.62 C 206.16 585.10 200.27 579.29 200.65 573.21 C 195.21 575.87 192.33 572.40 190.68 568.08 C 185.28 570.79 180.31 564.56 186.27 561.32 C 184.08 550.48 197.67 557.89 203.61 557.74 C 209.29 552.94 207.18 543.73 216.29 542.28 C 217.53 537.98 209.80 529.35 218.19 527.32 C 225.44 526.81 221.31 514.15 214.94 515.53 C 208.88 513.28 220.38 508.17 215.95 504.04 C 213.05 499.61 215.72 492.23 209.50 490.58 C 213.91 476.26 192.79 478.57 191.88 465.35 C 182.42 467.14 190.26 452.82 181.40 450.60 C 178.16 428.54 161.26 415.65 145.83 400.99 Z" />
<path fill="#5e4f51" d=" M 520.59 411.63 C 536.19 399.49 553.58 416.72 570.07 416.84 C 583.67 420.66 569.48 436.82 579.12 441.44 C 558.67 449.16 536.93 437.60 516.58 444.58 C 499.64 448.78 482.97 437.59 466.41 443.40 C 458.12 443.82 448.89 445.87 441.16 441.86 C 433.95 437.33 436.41 428.07 436.83 420.99 C 435.94 417.12 435.06 409.89 441.04 410.02 C 449.71 410.39 464.08 403.79 467.68 414.63 C 478.41 412.18 487.26 419.22 496.91 421.95 C 504.12 416.48 514.02 418.54 520.59 411.63 Z" />
<path fill="#c44d22" d=" M 246.70 447.69 C 265.31 445.33 268.39 420.81 280.90 412.02 C 290.05 414.09 280.05 433.77 292.33 427.41 C 287.85 436.26 275.45 435.97 269.65 443.85 C 261.08 451.87 253.32 460.73 244.29 468.28 C 240.51 470.81 237.13 476.93 231.97 473.99 C 226.51 467.05 219.48 461.18 215.71 453.00 C 220.93 456.40 222.96 463.21 228.53 466.44 C 238.52 471.72 239.55 451.35 246.70 447.69 Z" />
<path fill="#454044" d=" M 700.11 423.21 C 702.67 417.35 709.41 416.27 714.22 412.94 C 719.75 412.80 705.22 421.25 712.44 418.41 C 717.26 414.07 728.39 414.85 727.88 419.34 C 722.15 424.88 716.51 430.78 709.26 434.32 C 705.85 436.07 709.86 437.51 711.67 438.44 C 733.83 443.02 759.45 445.80 774.77 465.01 C 777.12 467.69 774.24 470.70 772.92 473.12 C 769.63 471.54 765.98 471.16 762.40 470.95 C 756.46 459.63 742.19 462.87 734.14 454.78 C 725.07 456.66 713.25 451.52 706.09 459.15 C 696.53 462.24 689.15 453.64 681.23 449.90 C 674.60 445.91 665.97 446.48 660.41 440.59 C 646.59 440.58 634.69 454.06 620.15 450.91 C 612.08 444.72 603.32 439.31 592.75 439.03 C 595.48 431.05 608.34 413.15 616.38 425.67 C 625.41 427.06 634.95 430.10 644.54 429.24 C 647.99 423.43 653.80 425.61 658.60 428.46 C 672.64 429.98 686.19 424.25 700.11 423.21 Z" />
<path fill="#564539" d=" M 292.33 427.41 L 292.74 426.75 C 289.80 436.20 299.05 438.46 306.15 437.53 C 332.22 437.01 358.39 436.22 384.08 441.04 C 403.01 446.04 422.14 440.20 441.16 441.86 C 448.89 445.87 458.12 443.82 466.41 443.40 C 482.97 437.59 499.64 448.78 516.58 444.58 C 536.93 437.60 558.67 449.16 579.12 441.44 C 583.36 439.47 588.13 439.14 592.75 439.03 C 603.32 439.31 612.08 444.72 620.15 450.91 C 634.69 454.06 646.59 440.58 660.41 440.59 C 665.97 446.48 674.60 445.91 681.23 449.90 C 689.15 453.64 696.53 462.24 706.09 459.15 C 713.25 451.52 725.07 456.66 734.14 454.78 C 742.19 462.87 756.46 459.63 762.40 470.95 C 761.37 471.77 760.35 472.60 759.32 473.42 C 748.53 474.85 738.81 472.10 730.63 465.29 C 716.63 465.71 702.16 482.75 689.05 470.97 C 686.48 458.03 673.48 454.98 662.48 452.50 C 649.20 453.43 636.50 459.86 623.53 460.49 C 604.65 459.73 586.43 452.46 567.09 455.85 C 552.39 455.65 538.36 446.84 523.54 451.55 C 493.55 453.76 463.37 455.16 433.24 454.46 C 431.09 454.22 428.92 454.31 426.82 454.82 C 399.97 461.85 372.27 453.75 345.17 452.80 C 323.27 447.99 300.44 458.94 279.31 449.90 C 275.22 450.33 268.99 449.30 269.65 443.85 C 275.45 435.97 287.85 436.26 292.33 427.41 Z" />
<path fill="#2b282d" d=" M 953.62 442.60 C 967.07 431.05 984.11 436.46 1000.00 436.96 L 1000.00 511.59 C 993.95 507.82 987.36 505.20 980.45 503.49 C 972.03 497.87 975.62 486.11 970.21 478.81 C 962.26 475.49 953.78 472.77 944.87 474.92 C 940.52 479.60 937.48 490.82 928.77 487.74 C 917.29 482.01 900.57 493.35 892.78 479.70 C 890.54 471.53 882.15 478.66 876.95 479.94 C 872.64 488.14 861.99 487.04 856.86 494.07 C 847.79 489.26 838.52 498.50 829.06 493.93 C 824.86 489.62 818.52 488.04 814.99 483.02 C 827.07 475.85 842.68 476.08 853.93 466.70 C 859.22 463.88 865.98 467.97 869.81 461.84 C 873.58 461.55 878.23 464.43 881.16 460.07 C 888.35 457.68 904.48 448.33 904.54 458.43 C 910.18 460.60 909.91 454.64 913.30 452.27 C 926.74 450.98 939.79 444.29 953.62 442.60 Z" />
<path fill="#120e0f" d=" M 94.52 439.87 C 99.97 439.98 102.28 448.47 98.92 451.86 C 94.51 453.63 96.73 459.79 102.01 456.00 C 110.37 451.64 113.48 463.70 106.81 467.07 C 111.07 471.58 120.09 469.93 116.89 479.14 C 123.44 482.42 122.64 469.37 130.36 471.36 C 122.72 479.46 131.03 490.05 140.30 491.47 C 135.85 497.53 132.04 485.25 128.22 489.17 C 120.95 494.47 133.23 503.27 125.85 508.76 C 124.22 510.67 120.22 510.20 119.87 513.01 C 125.13 516.85 126.13 527.18 135.71 525.93 C 134.80 512.89 141.11 523.20 146.65 523.23 C 144.85 530.37 149.66 530.13 154.03 528.92 C 151.19 535.56 146.86 540.99 139.93 543.75 C 146.15 543.46 138.74 550.17 135.40 549.12 C 135.99 544.14 134.86 536.52 128.93 535.98 C 131.34 539.37 129.71 543.64 125.72 544.78 C 118.09 550.06 130.32 555.05 135.03 554.84 C 145.39 551.84 135.70 566.43 143.10 567.94 C 146.19 567.59 149.61 566.14 152.20 568.71 C 147.49 571.71 157.48 574.78 155.86 579.30 C 159.26 582.80 155.40 586.63 156.57 590.60 C 163.45 594.99 162.75 582.28 168.34 588.43 C 171.71 594.08 174.50 593.98 181.04 591.93 C 175.69 601.38 182.69 603.50 191.33 603.71 C 194.18 610.53 180.32 609.73 183.37 618.22 C 186.11 622.66 192.31 625.19 194.76 630.32 C 195.57 635.25 193.27 641.44 186.63 637.53 C 188.03 630.90 184.10 631.81 180.32 633.21 C 173.00 633.10 174.48 645.65 166.06 641.06 C 170.64 649.80 165.27 657.86 166.01 667.00 L 0.00 667.00 L 0.00 497.29 C 3.79 489.26 17.67 486.15 15.31 476.21 C 19.68 474.60 22.55 470.46 27.26 469.59 C 37.97 469.50 38.52 455.41 49.75 456.12 C 52.04 464.07 44.87 473.31 45.19 481.95 C 47.65 488.81 42.19 494.03 39.86 499.87 C 32.08 516.48 38.48 536.06 26.48 551.12 C 29.67 559.41 24.65 568.07 27.61 576.31 C 32.74 580.69 37.55 574.12 36.80 568.84 C 39.21 560.62 39.55 552.16 41.83 543.94 C 41.74 523.56 53.42 505.81 55.94 485.98 C 57.08 481.54 61.53 478.73 63.12 474.86 C 57.93 465.05 74.23 465.48 68.24 456.56 C 65.32 454.06 72.63 437.55 78.18 445.68 C 83.79 444.51 95.49 449.11 94.52 439.87 Z" />
<path fill="#573f24" d=" M 244.29 468.28 C 253.32 460.73 261.08 451.87 269.65 443.85 C 268.99 449.30 275.22 450.33 279.31 449.90 C 300.44 458.94 323.27 447.99 345.17 452.80 C 372.27 453.75 399.97 461.85 426.82 454.82 C 430.22 456.87 427.87 457.15 425.03 457.30 C 426.16 463.80 428.53 471.17 425.13 477.37 C 420.29 473.85 417.09 468.53 414.41 463.30 C 407.04 462.39 399.98 465.27 393.65 468.70 C 389.96 471.19 387.51 476.54 382.34 474.20 C 380.15 481.52 368.88 488.70 365.08 478.91 C 364.51 470.84 355.85 464.19 348.49 469.44 C 345.91 479.00 341.61 488.98 343.06 498.94 C 344.19 508.40 352.64 524.47 339.46 528.58 C 335.95 532.26 326.52 531.77 326.49 525.53 C 325.79 508.78 313.51 494.28 314.56 477.51 C 316.66 474.90 318.56 464.98 313.06 470.02 C 305.23 479.55 296.32 487.39 286.04 493.44 C 277.48 489.36 275.51 502.70 270.14 504.99 C 262.64 496.88 255.30 488.10 252.47 477.34 C 252.56 474.23 253.45 469.65 249.84 468.21 C 243.41 468.98 239.89 479.15 233.12 476.00 C 232.83 475.49 232.26 474.49 231.97 473.99 C 237.13 476.93 240.51 470.81 244.29 468.28 Z" />
<path fill="#594126" d=" M 523.54 451.55 C 538.36 446.84 552.39 455.65 567.09 455.85 C 586.43 452.46 604.65 459.73 623.53 460.49 C 636.50 459.86 649.20 453.43 662.48 452.50 C 673.48 454.98 686.48 458.03 689.05 470.97 C 702.16 482.75 716.63 465.71 730.63 465.29 C 738.81 472.10 748.53 474.85 759.32 473.42 C 751.17 483.39 739.00 476.42 729.90 472.10 C 717.10 474.90 705.23 481.60 691.32 478.15 C 680.50 472.65 666.53 481.53 656.82 473.00 C 651.57 474.14 646.09 474.72 641.34 477.40 C 633.79 481.20 628.92 466.84 621.77 471.66 C 607.89 484.80 588.88 454.22 575.98 472.88 C 577.63 479.92 567.99 483.28 571.74 489.74 C 562.16 493.75 560.04 503.86 556.54 512.62 C 550.93 521.43 543.51 528.95 537.71 537.65 C 532.39 544.36 537.20 553.36 537.01 561.01 C 529.11 560.55 519.49 558.27 515.28 550.86 C 516.53 545.38 522.22 541.40 521.69 535.55 C 519.79 523.24 533.25 509.26 522.32 498.73 C 514.68 489.72 506.87 479.31 508.11 468.14 C 509.79 460.56 500.79 472.24 496.25 469.50 C 494.65 479.91 485.67 489.17 474.97 491.80 C 465.24 487.94 464.02 475.33 464.77 466.28 C 457.29 455.20 443.05 459.46 432.09 455.70 C 432.38 455.39 432.95 454.77 433.24 454.46 C 463.37 455.16 493.55 453.76 523.54 451.55 Z" />
<path fill="#4d3a1e" d=" M 426.82 454.82 C 428.92 454.31 431.09 454.22 433.24 454.46 C 432.95 454.77 432.38 455.39 432.09 455.70 C 443.05 459.46 457.29 455.20 464.77 466.28 C 464.02 475.33 465.24 487.94 474.97 491.80 C 485.67 489.17 494.65 479.91 496.25 469.50 C 500.79 472.24 509.79 460.56 508.11 468.14 C 506.87 479.31 514.68 489.72 522.32 498.73 C 533.25 509.26 519.79 523.24 521.69 535.55 C 522.22 541.40 516.53 545.38 515.28 550.86 C 519.49 558.27 529.11 560.55 537.01 561.01 C 537.20 553.36 532.39 544.36 537.71 537.65 C 543.51 528.95 550.93 521.43 556.54 512.62 C 560.04 503.86 562.16 493.75 571.74 489.74 C 567.99 483.28 577.63 479.92 575.98 472.88 C 588.88 454.22 607.89 484.80 621.77 471.66 C 628.92 466.84 633.79 481.20 641.34 477.40 C 646.09 474.72 651.57 474.14 656.82 473.00 C 666.53 481.53 680.50 472.65 691.32 478.15 C 705.23 481.60 717.10 474.90 729.90 472.10 C 739.00 476.42 751.17 483.39 759.32 473.42 C 760.35 472.60 761.37 471.77 762.40 470.95 C 765.98 471.16 769.63 471.54 772.92 473.12 C 773.57 474.07 774.23 475.03 774.87 476.01 C 776.38 480.41 784.38 476.10 784.97 482.00 C 789.33 490.49 783.03 494.80 779.12 502.10 C 774.11 514.25 760.50 513.43 750.12 517.07 C 747.04 510.18 738.21 505.18 740.10 496.22 C 738.07 486.56 723.20 482.02 719.95 494.14 C 713.38 487.09 703.20 489.99 694.01 486.93 C 680.22 483.91 662.13 483.10 654.38 497.54 C 660.09 501.39 654.93 508.49 649.66 509.96 C 654.95 512.11 655.56 519.09 648.65 518.68 C 640.02 521.28 652.00 507.33 645.62 509.52 C 625.59 500.39 603.38 525.43 584.10 510.01 C 570.73 520.01 559.56 529.99 546.14 540.43 C 541.38 555.88 562.55 556.62 566.20 568.86 C 572.50 574.25 561.07 580.11 556.13 577.90 C 538.40 567.95 518.24 564.08 499.35 557.52 C 495.49 551.52 489.90 546.98 483.08 544.89 C 475.63 543.30 484.67 531.89 489.17 535.77 C 494.42 544.66 506.57 538.09 512.67 533.53 C 515.22 524.55 517.86 515.50 518.91 506.20 C 513.76 501.51 512.36 493.06 505.58 490.28 C 502.73 490.12 496.06 489.49 496.02 494.01 C 495.98 502.93 485.28 505.20 480.73 511.72 C 472.60 510.22 469.93 502.25 465.64 496.45 C 457.80 491.61 457.29 476.81 446.37 477.29 C 433.38 481.44 437.51 496.36 435.30 506.31 C 431.65 529.88 407.14 547.36 383.40 541.85 C 369.66 542.95 354.26 532.17 342.25 543.22 C 339.92 550.23 332.70 557.40 325.77 551.21 C 324.40 537.92 312.59 530.51 303.12 523.00 C 295.52 519.41 293.69 506.86 283.15 510.06 C 278.41 511.07 275.64 515.45 271.94 518.19 C 258.42 509.72 255.64 488.19 240.81 482.80 C 238.26 480.53 234.88 479.01 233.12 476.00 C 239.89 479.15 243.41 468.98 249.84 468.21 C 253.45 469.65 252.56 474.23 252.47 477.34 C 255.30 488.10 262.64 496.88 270.14 504.99 C 275.51 502.70 277.48 489.36 286.04 493.44 C 296.32 487.39 305.23 479.55 313.06 470.02 C 318.56 464.98 316.66 474.90 314.56 477.51 C 313.51 494.28 325.79 508.78 326.49 525.53 C 326.52 531.77 335.95 532.26 339.46 528.58 C 352.64 524.47 344.19 508.40 343.06 498.94 C 341.61 488.98 345.91 479.00 348.49 469.44 C 355.85 464.19 364.51 470.84 365.08 478.91 C 368.88 488.70 380.15 481.52 382.34 474.20 C 387.51 476.54 389.96 471.19 393.65 468.70 C 399.98 465.27 407.04 462.39 414.41 463.30 C 417.09 468.53 420.29 473.85 425.13 477.37 C 428.53 471.17 426.16 463.80 425.03 457.30 C 427.87 457.15 430.22 456.87 426.82 454.82 Z" />
<path fill="#40321a" d=" M 774.87 476.01 C 788.63 477.54 802.60 478.79 814.99 483.02 C 818.52 488.04 824.86 489.62 829.06 493.93 C 825.85 502.01 812.21 503.17 815.68 514.33 C 813.14 521.80 813.01 532.72 822.77 534.43 C 820.87 539.47 816.20 545.33 814.51 550.54 C 821.22 549.42 827.22 550.92 824.08 558.75 C 837.30 556.42 833.12 571.78 826.25 576.30 C 827.78 585.74 828.47 597.27 818.22 602.35 C 823.62 590.36 811.09 591.56 805.35 588.28 C 800.85 591.90 794.90 600.06 790.00 593.00 C 782.25 585.96 765.91 595.01 768.84 605.99 C 768.56 618.91 776.52 645.39 757.20 647.17 C 752.15 654.49 750.83 648.46 751.62 643.34 C 741.58 635.06 732.72 652.71 721.76 646.26 C 715.75 639.63 705.59 641.03 698.96 635.12 C 690.38 637.15 689.37 650.22 681.27 651.79 C 678.44 644.25 670.71 645.57 664.34 644.22 C 660.76 648.83 655.10 649.92 649.99 647.03 C 640.97 643.77 629.12 646.05 622.34 638.02 C 626.03 626.57 637.06 613.29 626.68 602.34 C 612.37 598.15 601.40 587.52 587.79 582.20 C 575.59 579.98 568.12 595.27 556.79 592.33 C 548.20 575.13 526.06 569.76 508.63 570.59 C 502.55 575.86 497.59 567.95 491.17 566.87 C 485.26 546.04 456.84 570.69 449.04 552.02 C 441.63 538.50 461.66 527.84 456.44 514.65 C 455.12 511.43 457.72 496.14 450.97 502.00 C 440.08 515.21 433.65 531.86 426.09 546.67 C 437.02 550.35 422.40 556.30 421.47 562.25 C 417.21 568.87 418.18 578.96 411.03 584.15 C 401.75 587.68 399.50 599.15 406.02 606.13 C 403.61 613.56 393.84 617.38 391.13 625.02 C 392.78 635.25 377.89 630.69 373.57 625.34 C 364.05 625.57 360.98 644.80 350.50 640.69 C 345.13 629.79 345.83 614.40 334.03 608.07 C 329.47 600.24 327.14 613.85 320.87 613.84 C 312.49 616.62 309.04 626.33 299.76 627.79 C 291.80 637.04 291.85 617.24 291.71 612.21 C 290.14 584.71 288.03 556.81 285.29 529.69 C 283.66 526.83 281.13 529.30 279.05 530.11 C 262.67 517.26 254.90 497.58 240.81 482.80 C 255.64 488.19 258.42 509.72 271.94 518.19 C 275.64 515.45 278.41 511.07 283.15 510.06 C 293.69 506.86 295.52 519.41 303.12 523.00 C 312.59 530.51 324.40 537.92 325.77 551.21 C 332.70 557.40 339.92 550.23 342.25 543.22 C 354.26 532.17 369.66 542.95 383.40 541.85 C 407.14 547.36 431.65 529.88 435.30 506.31 C 437.51 496.36 433.38 481.44 446.37 477.29 C 457.29 476.81 457.80 491.61 465.64 496.45 C 469.93 502.25 472.60 510.22 480.73 511.72 C 485.28 505.20 495.98 502.93 496.02 494.01 C 496.06 489.49 502.73 490.12 505.58 490.28 C 512.36 493.06 513.76 501.51 518.91 506.20 C 517.86 515.50 515.22 524.55 512.67 533.53 C 506.57 538.09 494.42 544.66 489.17 535.77 C 484.67 531.89 475.63 543.30 483.08 544.89 C 489.90 546.98 495.49 551.52 499.35 557.52 C 518.24 564.08 538.40 567.95 556.13 577.90 C 561.07 580.11 572.50 574.25 566.20 568.86 C 562.55 556.62 541.38 555.88 546.14 540.43 C 559.56 529.99 570.73 520.01 584.10 510.01 C 603.38 525.43 625.59 500.39 645.62 509.52 C 652.00 507.33 640.02 521.28 648.65 518.68 C 655.56 519.09 654.95 512.11 649.66 509.96 C 654.93 508.49 660.09 501.39 654.38 497.54 C 662.13 483.10 680.22 483.91 694.01 486.93 C 703.20 489.99 713.38 487.09 719.95 494.14 C 723.20 482.02 738.07 486.56 740.10 496.22 C 738.21 505.18 747.04 510.18 750.12 517.07 C 760.50 513.43 774.11 514.25 779.12 502.10 C 783.03 494.80 789.33 490.49 784.97 482.00 C 784.38 476.10 776.38 480.41 774.87 476.01 Z" />
<path fill="#342c17" d=" M 680.34 493.24 C 693.12 493.39 699.14 501.83 698.67 513.65 C 693.23 521.84 690.24 531.06 689.12 540.77 C 693.04 541.52 697.34 542.60 700.87 546.14 C 712.74 538.23 694.36 526.42 705.58 519.52 C 711.71 512.98 721.56 513.08 729.65 515.25 C 735.12 521.32 742.89 525.08 750.69 527.37 C 760.56 527.63 771.70 523.68 780.40 531.60 C 797.39 528.01 783.41 550.40 795.13 554.83 C 801.51 564.91 807.62 549.54 815.71 554.19 C 815.27 563.73 808.78 575.99 799.20 566.85 C 796.43 559.59 789.80 568.45 786.42 569.82 C 786.65 564.18 779.57 566.81 778.85 562.12 C 776.27 552.73 764.78 552.73 758.08 558.07 C 745.78 561.99 745.39 579.05 736.94 584.99 C 741.23 574.94 719.13 561.09 715.75 575.70 C 711.26 577.39 706.17 583.01 701.25 579.70 C 701.43 571.92 698.90 564.57 697.87 556.98 C 695.59 558.91 693.28 560.97 690.05 561.11 C 683.78 561.18 683.23 569.74 677.22 570.27 C 682.18 577.91 663.32 582.52 660.47 577.17 C 664.38 573.82 667.21 567.53 673.07 567.82 C 669.48 565.12 673.76 557.49 676.00 553.98 C 684.94 544.98 679.16 530.38 669.78 524.28 C 666.27 513.10 669.02 498.85 680.34 493.24 Z" />
<path fill="#271f11" d=" M 937.52 540.66 C 947.37 538.41 950.31 527.53 955.88 520.97 C 959.94 528.85 960.18 539.61 957.79 547.79 C 949.51 554.99 953.28 568.49 958.75 576.19 C 962.08 584.54 974.49 578.76 978.67 586.39 C 982.66 595.46 992.70 598.75 1000.00 604.49 L 1000.00 667.00 L 811.05 667.00 C 808.11 658.60 816.93 652.63 817.50 644.55 C 820.36 636.03 830.28 630.56 839.13 630.09 C 845.88 629.27 853.43 612.67 855.29 627.74 C 858.96 624.06 866.63 621.91 872.77 620.68 C 881.41 612.78 894.48 613.87 904.58 617.42 C 911.76 619.77 907.22 629.12 911.88 633.23 C 908.29 623.60 920.74 620.01 918.65 610.64 C 924.89 605.88 926.08 616.42 929.82 618.26 C 937.52 617.55 946.33 622.26 945.60 630.95 C 946.08 638.46 959.71 649.70 963.54 640.49 C 973.52 628.61 960.08 615.33 947.35 617.34 C 949.61 611.02 945.71 604.80 948.63 598.64 C 948.71 593.37 941.11 593.25 937.50 594.24 C 929.81 593.86 932.43 608.60 922.66 602.46 C 911.71 582.18 945.98 574.08 936.81 554.14 C 934.36 549.78 933.89 544.66 937.52 540.66 Z" />
<path fill="#49321b" d=" M 862.35 535.22 C 866.07 535.81 865.63 544.98 872.22 543.50 C 884.73 538.32 891.79 553.78 897.86 561.95 C 895.82 565.29 896.74 574.95 891.48 570.43 C 880.95 571.56 873.46 586.41 878.49 596.67 C 880.29 607.77 869.98 611.60 861.31 611.73 C 848.96 606.56 856.97 588.66 845.76 582.23 C 841.69 576.08 840.47 565.14 846.76 559.80 C 851.76 555.71 846.70 547.25 852.39 543.48 C 857.00 542.56 859.77 538.83 862.35 535.22 Z" />
<path fill="#433318" d=" M 483.33 593.42 C 488.98 595.45 498.39 591.44 500.56 599.40 C 498.41 608.90 507.72 609.63 514.31 608.72 C 527.13 618.55 542.31 609.40 556.36 608.37 C 559.27 604.08 568.63 598.76 567.20 608.85 C 578.42 615.31 573.00 632.46 566.27 641.28 C 563.80 650.02 553.29 648.94 546.00 650.93 C 530.24 649.94 522.53 634.90 509.09 628.91 C 503.79 618.24 490.05 623.52 480.72 621.23 C 472.56 613.55 451.53 620.69 452.29 604.32 C 456.63 587.84 472.71 599.30 483.33 593.42 Z" />
<path fill="#242115" d=" M 406.48 621.63 C 414.98 617.10 423.23 626.13 431.95 622.98 C 455.62 616.45 475.96 632.67 498.64 635.37 C 516.61 647.51 534.21 668.52 558.54 661.31 C 559.60 666.77 564.20 664.81 567.66 667.00 L 422.62 667.00 C 427.32 663.29 431.55 655.39 426.63 650.35 C 419.76 641.37 406.01 634.13 406.48 621.63 Z" />
</svg>
